<svg xmlns="http://www.w3.org/2000/svg" width="33" height="26" viewBox="0 0 33 26" fill="none"><path fill-rule="evenodd" clip-rule="evenodd" d="M30.3325 4.35716C30.7561 4.92202 30.6416 5.72335 30.0768 6.14699L20.1688 13.578C18.0095 15.1974 15.0408 15.1974 12.8816 13.578L2.97356 6.14708C2.4087 5.72344 2.29422 4.9221 2.71786 4.35725C3.1415 3.79239 3.94283 3.67791 4.50769 4.10155L14.4157 11.5325C14.4157 11.5325 14.4157 11.5325 14.4157 11.5325C15.6658 12.47 17.3845 12.47 18.6346 11.5325C18.6346 11.5325 18.6346 11.5325 18.6346 11.5325L28.5426 4.10147C29.1075 3.67783 29.9088 3.7923 30.3325 4.35716Z" fill="black"></path><path fill-rule="evenodd" clip-rule="evenodd" d="M5.33882 3.20632C4.27971 3.20632 3.42114 4.0649 3.42114 5.124V21.1047C3.42114 22.1638 4.27971 23.0224 5.33882 23.0224H27.7118C28.7709 23.0224 29.6294 22.1638 29.6294 21.1047V5.124C29.6294 4.0649 28.7709 3.20632 27.7118 3.20632H5.33882ZM0.864227 5.124C0.864227 2.65276 2.86757 0.649414 5.33882 0.649414H27.7118C30.183 0.649414 32.1863 2.65276 32.1863 5.124V21.1047C32.1863 23.5759 30.183 25.5793 27.7118 25.5793H5.33882C2.86757 25.5793 0.864227 23.5759 0.864227 21.1047V5.124Z" fill="black"></path></svg>