<svg xmlns="http://www.w3.org/2000/svg" width="43" height="43" viewBox="0 0 43 43" fill="none"><path d="M41.7083 14.9008C43.0841 19.0937 43.0774 23.6079 41.6891 27.7968C40.3009 31.9857 37.6024 35.6344 33.9801 38.2201C30.3579 40.8058 25.9978 42.1959 21.5244 42.1912C17.0511 42.1865 12.694 40.7874 9.0773 38.1941C5.46063 35.6009 2.76996 31.9466 1.39073 27.7548C0.0115001 23.563 0.0144894 19.0488 1.39926 14.8588C2.78403 10.6688 5.47952 7.01795 9.09962 4.42935C12.7197 1.84075 17.0787 0.447168 21.552 0.448243C26.0307 0.451617 30.3933 1.85185 34.0143 4.44819C37.6353 7.04452 40.3287 10.7036 41.7083 14.9008ZM21.552 2.33704C17.4779 2.34243 13.51 3.61795 10.2168 5.98085C6.92371 8.34374 4.47433 11.6728 3.21962 15.4909C1.96492 19.3091 1.96929 23.4205 3.23209 27.2361C4.4949 31.0517 6.95133 34.3757 10.2495 36.7318C13.5476 39.0879 17.5182 40.3552 21.5924 40.3522C25.6665 40.3492 29.6352 39.076 32.9298 36.7151C36.2243 34.3541 38.6757 31.0266 39.9328 27.2091C41.1898 23.3917 41.1879 19.2803 39.9274 15.464C38.6671 11.6431 36.2095 8.31418 32.9079 5.95558C29.6062 3.59697 25.6305 2.3301 21.552 2.33704Z" fill="black"></path><path fill-rule="evenodd" clip-rule="evenodd" d="M25.0186 14.1435H27.3763V10.5902C27.012 10.5902 26.6275 10.5055 26.2329 10.4806H24.113C23.0424 10.474 21.9961 10.7944 21.1179 11.3976C20.6332 11.7457 20.2244 12.1863 19.9158 12.6931C19.6073 13.1999 19.4053 13.7627 19.3219 14.3479C19.2421 14.8176 19.1948 15.2922 19.1802 15.7682V18.5541H15.7449V22.5111H19.1498V32.4335H23.3895V22.4662H26.7995L27.2093 18.5541H23.2529V15.7682C23.3642 14.5173 24.0725 14.1685 25.0186 14.1435Z" fill="black"></path></svg>