<svg xmlns="http://www.w3.org/2000/svg" width="51" height="50" viewBox="0 0 51 50" fill="none"><path d="M49.1991 17.2349C50.8107 22.1467 50.8028 27.4348 49.1766 32.3418C47.5504 37.2489 44.3892 41.523 40.146 44.552C35.9028 47.581 30.7952 49.2094 25.5549 49.2039C20.3147 49.1985 15.2106 47.5594 10.9739 44.5216C6.73721 41.4838 3.58526 37.203 1.96958 32.2926C0.353899 27.3822 0.357401 22.0941 1.97957 17.1857C3.60174 12.2774 6.75935 8.00069 11.0001 4.96831C15.2408 1.93592 20.347 0.303429 25.5873 0.304688C30.8338 0.30864 35.9443 1.94893 40.186 4.99037C44.4278 8.03182 47.5829 12.3182 49.1991 17.2349ZM25.5873 2.51729C20.8147 2.52361 16.1665 4.0178 12.3088 6.78578C8.45112 9.55377 5.58182 13.4535 4.11201 17.9263C2.64221 22.399 2.64732 27.2153 4.12662 31.685C5.60592 36.1547 8.48348 40.0485 12.347 42.8085C16.2106 45.5686 20.8619 47.0532 25.6345 47.0497C30.4072 47.0462 35.0562 45.5547 38.9156 42.789C42.775 40.0233 45.6466 36.1253 47.1191 31.6534C48.5917 27.1815 48.5895 22.3652 47.1129 17.8946C45.6365 13.4188 42.7576 9.51914 38.8899 6.75618C35.0223 3.99323 30.365 2.50917 25.5873 2.51729Z" fill="#2EC1D9"></path><path fill-rule="evenodd" clip-rule="evenodd" d="M29.6482 16.3477H32.41V12.1852C31.9833 12.1852 31.5328 12.0859 31.0706 12.0568H28.5873C27.3332 12.0491 26.1075 12.4244 25.0787 13.1309C24.5108 13.5388 24.032 14.0549 23.6706 14.6486C23.3091 15.2423 23.0725 15.9015 22.9747 16.5871C22.8813 17.1373 22.8259 17.6932 22.8088 18.2509V21.5143H18.7846V26.1497H22.7732V37.7732H27.7398V26.0972H31.7343L32.2144 21.5143H27.5798V18.2509C27.7102 16.7856 28.5399 16.3769 29.6482 16.3477Z" fill="#2EC1D9"></path></svg>