<svg xmlns="http://www.w3.org/2000/svg" xmlns:xlink="http://www.w3.org/1999/xlink" id="Layer_1" x="0px" y="0px" viewBox="0 0 280 60" style="enable-background:new 0 0 280 60;" xml:space="preserve"><style type="text/css">	.st0{fill:#2CC1D9;}	.st1{fill:none;stroke:#2CC1D9;stroke-width:5.9878;stroke-miterlimit:10;}	.st2{fill:none;stroke:#2CC1D9;stroke-width:0.9654;stroke-miterlimit:10;}	.st3{fill:#FFFFFF;}</style><g>	<g>		<polygon class="st0" points="-1259.2,3033.6 -1233.7,3033.6 -1199.8,3083.5 -1174.4,3083.5 -1223.3,3010.2 -1298.1,3010.2    -1223.3,3125 -1116,3127.4 -1102,3149.9 -1233.2,3149.9 -1341.5,2989.2 -1210.8,2988.7 -1131,3104.5 -1209.3,3106.5   "></polygon>		<polygon class="st0" points="-1118.5,2967.3 -1132.4,2984.2 -1070.1,3081.5 -1029.2,3021.7 -1121.5,2891.9 -1184.8,2987.2    -1075.6,3148.4 -1062.6,3127.9 -1159.9,2986.2 -1120,2928.9 -1054.1,3024.2 -1069.6,3041.6   "></polygon>		<polygon class="st0" points="-956.8,3032.1 -930.4,3033.1 -979.3,3104 -1056.6,3105.5 -977.8,2987.7 -848.5,2990.2 -958.3,3152.4    -1073.6,3151.4 -1075.6,3148.4 -1062.6,3127.9 -970.3,3127.9 -891.4,3010.2 -968.8,3010.7 -1015.7,3083 -988.2,3083.5   "></polygon>		<polygon class="st0" points="-1015.7,3003.7 -1107,2870 -1094.5,2850.5 -1002.7,2984.7   "></polygon>		<polygon class="st0" points="-972.6,3168.7 -986.1,3193.1 -1203.9,3193.1 -1216.7,3170.2   "></polygon>	</g>	<g>		<g>			<g>				<g>					<g>						<g>							<g>								<rect x="-795.1" y="2919" class="st0" width="502.1" height="4.7"></rect>							</g>						</g>						<g>							<g>								<rect x="-148.7" y="2919" class="st0" width="502.1" height="4.7"></rect>							</g>						</g>					</g>				</g>			</g>		</g>		<g>			<g>				<line class="st1" x1="-771.9" y1="3159.9" x2="-473" y2="3159.9"></line>				<line class="st1" x1="-7" y1="3159.9" x2="328.3" y2="3159.9"></line>			</g>			<g>									<text transform="matrix(1 0 0 1 -418.2198 3201.7349)" class="st0" style="font-family:'TimesNewRomanPSMT'; font-size:119.756px;">CABO</text>			</g>							<text transform="matrix(1 0 0 1 -829.0254 3061.1978)" class="st0" style="font-family:'TimesNewRomanPSMT'; font-size:135.8423px;">LUXURY RENTALS</text>		</g>	</g></g><g>	<g>		<polygon class="st0" points="15.8,31.1 19.9,31.1 25.4,39.1 29.5,39.1 21.6,27.3 9.6,27.3 21.6,45.8 38.9,46.2 41.2,49.8 20,49.8    2.6,23.9 23.6,23.8 36.5,42.5 23.9,42.8   "></polygon>		<polygon class="st0" points="38.5,20.4 36.3,23.1 46.3,38.8 52.9,29.1 38.1,8.2 27.8,23.6 45.5,49.6 47.5,46.3 31.9,23.4    38.3,14.2 48.9,29.5 46.4,32.4   "></polygon>		<polygon class="st0" points="64.6,30.8 68.9,31 61,42.4 48.5,42.7 61.2,23.7 82.1,24.1 64.4,50.2 45.8,50.1 45.5,49.6 47.5,46.3    62.4,46.3 75.1,27.3 62.7,27.4 55.1,39 59.5,39.1   "></polygon>		<polygon class="st0" points="55.1,26.2 40.4,4.7 42.4,1.5 57.2,23.2   "></polygon>		<polygon class="st0" points="62,52.8 59.9,56.8 24.8,56.8 22.7,53.1   "></polygon>	</g>	<g>		<g>			<g>				<line class="st2" x1="94.4" y1="51.4" x2="142.6" y2="51.4"></line>				<line class="st2" x1="217.7" y1="51.4" x2="271.8" y2="51.4"></line>			</g>			<g>				<g>					<path class="st0" d="M163.1,45.1l0.3,4.3h-0.3c-0.4-1.3-0.9-2.2-1.7-2.8c-0.7-0.6-1.6-0.9-2.6-0.9c-0.8,0-1.6,0.2-2.3,0.6      c-0.7,0.4-1.2,1.1-1.6,2.1s-0.6,2.1-0.6,3.5c0,1.2,0.2,2.2,0.6,3c0.4,0.8,0.9,1.5,1.7,2s1.6,0.7,2.5,0.7c0.8,0,1.6-0.2,2.2-0.5      c0.6-0.4,1.3-1.1,2.1-2.1l0.3,0.2c-0.6,1.1-1.4,2-2.2,2.5c-0.9,0.5-1.9,0.8-3,0.8c-2.1,0-3.8-0.8-4.9-2.4      c-0.9-1.2-1.3-2.5-1.3-4.1c0-1.3,0.3-2.4,0.9-3.5c0.6-1.1,1.4-1.9,2.4-2.5c1-0.6,2.1-0.9,3.3-0.9c0.9,0,1.8,0.2,2.7,0.7      c0.3,0.1,0.5,0.2,0.6,0.2c0.2,0,0.3-0.1,0.4-0.2c0.2-0.2,0.3-0.4,0.3-0.7H163.1z"></path>					<path class="st0" d="M173.1,53.9h-4.9l-0.9,2c-0.2,0.5-0.3,0.9-0.3,1.1c0,0.2,0.1,0.4,0.3,0.5c0.2,0.1,0.6,0.2,1.2,0.3v0.3h-4      v-0.3c0.5-0.1,0.9-0.2,1-0.4c0.3-0.3,0.7-0.9,1.1-1.8l4.5-10.5h0.3l4.5,10.6c0.4,0.9,0.7,1.4,1,1.7c0.3,0.3,0.7,0.4,1.2,0.4      v0.3h-5v-0.3c0.5,0,0.9-0.1,1-0.3c0.2-0.1,0.3-0.3,0.3-0.5c0-0.3-0.1-0.7-0.4-1.3L173.1,53.9z M172.9,53.2l-2.2-5.2l-2.2,5.2      H172.9z"></path>					<path class="st0" d="M187.2,51.6c0.9,0.2,1.5,0.5,2,0.9c0.6,0.6,0.9,1.3,0.9,2.1c0,0.6-0.2,1.2-0.6,1.8c-0.4,0.6-1,1-1.7,1.3      c-0.7,0.3-1.8,0.4-3.2,0.4h-6v-0.3h0.5c0.5,0,0.9-0.2,1.1-0.5c0.1-0.2,0.2-0.7,0.2-1.4v-8.3c0-0.8-0.1-1.3-0.3-1.5      c-0.2-0.3-0.6-0.4-1.1-0.4h-0.5v-0.3h5.5c1,0,1.9,0.1,2.5,0.2c0.9,0.2,1.7,0.6,2.2,1.2c0.5,0.6,0.7,1.2,0.7,2      c0,0.6-0.2,1.2-0.6,1.7S187.9,51.4,187.2,51.6z M182.2,51.1c0.2,0,0.5,0.1,0.8,0.1s0.6,0,1,0c0.9,0,1.6-0.1,2.1-0.3      c0.5-0.2,0.8-0.5,1.1-0.9s0.4-0.9,0.4-1.3c0-0.7-0.3-1.4-0.9-1.9s-1.5-0.8-2.7-0.8c-0.6,0-1.2,0.1-1.7,0.2V51.1z M182.2,57.2      c0.7,0.2,1.4,0.3,2.2,0.3c1.1,0,2-0.3,2.6-0.8c0.6-0.5,0.9-1.1,0.9-1.9c0-0.5-0.1-1-0.4-1.4c-0.3-0.5-0.7-0.8-1.3-1.1      c-0.6-0.3-1.4-0.4-2.3-0.4c-0.4,0-0.7,0-1,0c-0.3,0-0.5,0-0.7,0.1V57.2z"></path>					<path class="st0" d="M198.2,45.1c1.7,0,3.1,0.6,4.3,1.9c1.2,1.3,1.8,2.8,1.8,4.7c0,1.9-0.6,3.6-1.8,4.8s-2.7,1.9-4.4,1.9      c-1.8,0-3.2-0.6-4.4-1.9c-1.2-1.3-1.8-2.9-1.8-4.9c0-2,0.7-3.7,2.1-5C195.1,45.6,196.5,45.1,198.2,45.1z M198,45.8      c-1.1,0-2.1,0.4-2.8,1.3c-0.9,1.1-1.3,2.6-1.3,4.6c0,2.1,0.4,3.7,1.3,4.8c0.7,0.9,1.6,1.3,2.7,1.3c1.2,0,2.2-0.5,3-1.4      c0.8-0.9,1.2-2.4,1.2-4.4c0-2.2-0.4-3.8-1.3-4.9C200.2,46.2,199.2,45.8,198,45.8z"></path>				</g>			</g>			<g>				<g>					<path class="st0" d="M99.6,31.5l0.4,0.1l-1.2,3.9H87.5v-0.4h0.5c0.6,0,1.1-0.2,1.3-0.6c0.2-0.2,0.2-0.8,0.2-1.6v-9.4      c0-0.9-0.1-1.5-0.3-1.7c-0.3-0.3-0.7-0.5-1.2-0.5h-0.5V21h6.6v0.4c-0.8,0-1.3,0.1-1.6,0.2c-0.3,0.1-0.5,0.3-0.6,0.6      s-0.2,0.8-0.2,1.6v9.1c0,0.6,0.1,1,0.2,1.2c0.1,0.1,0.2,0.3,0.4,0.3c0.2,0.1,0.7,0.1,1.7,0.1H95c1.1,0,1.9-0.1,2.3-0.2      s0.9-0.5,1.2-0.9C98.9,33.1,99.3,32.4,99.6,31.5z"></path>					<path class="st0" d="M110.9,21.4V21h5.1v0.4h-0.5c-0.6,0-1,0.2-1.3,0.7c-0.1,0.2-0.2,0.7-0.2,1.5v5.9c0,1.5-0.1,2.6-0.4,3.4      c-0.3,0.8-0.9,1.5-1.7,2.1c-0.8,0.6-2,0.9-3.4,0.9c-1.6,0-2.8-0.3-3.6-0.8c-0.8-0.5-1.4-1.3-1.7-2.2c-0.2-0.6-0.3-1.8-0.3-3.6      v-5.7c0-0.9-0.1-1.5-0.4-1.8c-0.2-0.3-0.6-0.4-1.2-0.4h-0.5V21h6.3v0.4h-0.6c-0.6,0-1,0.2-1.3,0.6c-0.2,0.3-0.3,0.8-0.3,1.6      v6.3c0,0.6,0.1,1.2,0.2,1.9c0.1,0.7,0.3,1.3,0.6,1.7c0.3,0.4,0.7,0.7,1.2,1s1.1,0.4,1.9,0.4c0.9,0,1.8-0.2,2.5-0.6      c0.7-0.4,1.3-0.9,1.5-1.6c0.3-0.6,0.4-1.7,0.4-3.3v-5.9c0-0.9-0.1-1.5-0.3-1.7c-0.3-0.3-0.7-0.5-1.2-0.5H110.9z"></path>					<path class="st0" d="M125.2,27.5l3.1,4.6c0.9,1.3,1.5,2.1,1.9,2.4c0.4,0.3,0.9,0.5,1.6,0.6v0.4h-6.2v-0.4c0.4,0,0.7,0,0.9-0.1      c0.1-0.1,0.3-0.2,0.4-0.3c0.1-0.1,0.1-0.3,0.1-0.4c0-0.2,0-0.3-0.1-0.5c0-0.1-0.2-0.4-0.6-0.9l-2.5-3.7l-3,3.9      c-0.3,0.4-0.5,0.7-0.6,0.8c-0.1,0.1-0.1,0.3-0.1,0.4c0,0.2,0.1,0.4,0.3,0.6s0.6,0.2,1.1,0.3v0.4h-5.1v-0.4      c0.4,0,0.7-0.1,0.9-0.2c0.4-0.2,0.9-0.4,1.3-0.7c0.4-0.3,0.9-0.8,1.4-1.4l3.4-4.3l-2.9-4.2c-0.8-1.1-1.4-1.9-2-2.2      s-1.2-0.5-1.9-0.6V21h6.7v0.4c-0.6,0-1,0.1-1.2,0.3c-0.2,0.2-0.3,0.3-0.3,0.5c0,0.3,0.2,0.6,0.5,1.2l2.2,3.3l2.6-3.3      c0.3-0.4,0.5-0.6,0.6-0.8c0.1-0.1,0.1-0.3,0.1-0.4c0-0.1,0-0.3-0.1-0.4c-0.1-0.1-0.2-0.3-0.4-0.3s-0.5-0.1-1-0.1V21h5.1v0.4      c-0.4,0-0.7,0.1-1,0.2c-0.4,0.2-0.7,0.4-1.1,0.7c-0.3,0.3-0.8,0.8-1.4,1.5L125.2,27.5z"></path>					<path class="st0" d="M142.6,21.4V21h5.1v0.4h-0.5c-0.6,0-1,0.2-1.3,0.7c-0.1,0.2-0.2,0.7-0.2,1.5v5.9c0,1.5-0.1,2.6-0.4,3.4      c-0.3,0.8-0.9,1.5-1.7,2.1c-0.8,0.6-2,0.9-3.4,0.9c-1.6,0-2.8-0.3-3.6-0.8c-0.8-0.5-1.4-1.3-1.7-2.2c-0.2-0.6-0.3-1.8-0.3-3.6      v-5.7c0-0.9-0.1-1.5-0.4-1.8c-0.2-0.3-0.6-0.4-1.2-0.4h-0.5V21h6.3v0.4h-0.6c-0.6,0-1,0.2-1.3,0.6c-0.2,0.3-0.3,0.8-0.3,1.6      v6.3c0,0.6,0.1,1.2,0.2,1.9c0.1,0.7,0.3,1.3,0.6,1.7c0.3,0.4,0.7,0.7,1.2,1s1.1,0.4,1.9,0.4c0.9,0,1.8-0.2,2.5-0.6      c0.7-0.4,1.3-0.9,1.5-1.6c0.3-0.6,0.4-1.7,0.4-3.3v-5.9c0-0.9-0.1-1.5-0.3-1.7c-0.3-0.3-0.7-0.5-1.2-0.5H142.6z"></path>					<path class="st0" d="M162.7,35.5h-3.9l-4.9-6.8c-0.4,0-0.7,0-0.9,0c-0.1,0-0.2,0-0.3,0c-0.1,0-0.2,0-0.3,0v4.2      c0,0.9,0.1,1.5,0.3,1.7c0.3,0.3,0.7,0.5,1.2,0.5h0.6v0.4h-6.2v-0.4h0.5c0.6,0,1.1-0.2,1.3-0.6c0.1-0.2,0.2-0.7,0.2-1.6v-9.4      c0-0.9-0.1-1.5-0.3-1.7c-0.3-0.3-0.7-0.5-1.2-0.5h-0.5V21h5.3c1.5,0,2.7,0.1,3.4,0.3c0.7,0.2,1.4,0.6,1.9,1.2      c0.5,0.6,0.8,1.3,0.8,2.2c0,0.9-0.3,1.7-0.9,2.3c-0.6,0.7-1.5,1.1-2.7,1.4l3,4.2c0.7,1,1.3,1.6,1.8,1.9      c0.5,0.3,1.1,0.5,1.9,0.6V35.5z M152.4,28.1c0.1,0,0.3,0,0.4,0c0.1,0,0.2,0,0.2,0c1.4,0,2.4-0.3,3.1-0.9      c0.7-0.6,1.1-1.4,1.1-2.3c0-0.9-0.3-1.6-0.9-2.2c-0.6-0.6-1.3-0.9-2.3-0.9c-0.4,0-1,0.1-1.7,0.2V28.1z"></path>					<path class="st0" d="M171.8,21h5.1v0.4h-0.3c-0.2,0-0.5,0.1-0.8,0.2s-0.7,0.4-1,0.7c-0.3,0.3-0.7,0.8-1.1,1.5l-3.5,5.5V33      c0,0.9,0.1,1.4,0.3,1.7c0.3,0.3,0.7,0.4,1.3,0.4h0.5v0.4h-6.2v-0.4h0.5c0.6,0,1-0.2,1.3-0.6c0.2-0.2,0.2-0.7,0.2-1.6v-3.4      l-4-6.1c-0.5-0.7-0.8-1.2-1-1.3c-0.2-0.2-0.5-0.4-1-0.6c-0.1-0.1-0.3-0.1-0.6-0.1V21h6.2v0.4h-0.3c-0.3,0-0.6,0.1-0.9,0.2      c-0.3,0.2-0.4,0.4-0.4,0.7c0,0.3,0.2,0.7,0.7,1.4l3,4.7l2.8-4.5c0.4-0.7,0.6-1.2,0.6-1.5c0-0.2-0.1-0.4-0.2-0.5      c-0.1-0.2-0.3-0.3-0.4-0.4c-0.2-0.1-0.5-0.1-0.9-0.1V21z"></path>					<path class="st0" d="M196.6,35.5h-3.9l-4.9-6.8c-0.4,0-0.7,0-0.9,0c-0.1,0-0.2,0-0.3,0c-0.1,0-0.2,0-0.3,0v4.2      c0,0.9,0.1,1.5,0.3,1.7c0.3,0.3,0.7,0.5,1.2,0.5h0.6v0.4h-6.2v-0.4h0.5c0.6,0,1.1-0.2,1.3-0.6c0.1-0.2,0.2-0.7,0.2-1.6v-9.4      c0-0.9-0.1-1.5-0.3-1.7c-0.3-0.3-0.7-0.5-1.2-0.5h-0.5V21h5.3c1.5,0,2.7,0.1,3.4,0.3c0.7,0.2,1.4,0.6,1.9,1.2      c0.5,0.6,0.8,1.3,0.8,2.2c0,0.9-0.3,1.7-0.9,2.3c-0.6,0.7-1.5,1.1-2.7,1.4l3,4.2c0.7,1,1.3,1.6,1.8,1.9      c0.5,0.3,1.1,0.5,1.9,0.6V35.5z M186.3,28.1c0.1,0,0.3,0,0.4,0c0.1,0,0.2,0,0.2,0c1.4,0,2.4-0.3,3.1-0.9      c0.7-0.6,1.1-1.4,1.1-2.3c0-0.9-0.3-1.6-0.9-2.2c-0.6-0.6-1.3-0.9-2.3-0.9c-0.4,0-1,0.1-1.7,0.2V28.1z"></path>					<path class="st0" d="M201,21.8v5.7h3.2c0.8,0,1.4-0.1,1.7-0.4c0.4-0.3,0.6-0.9,0.6-1.7h0.4v5h-0.4c-0.1-0.7-0.2-1.2-0.3-1.4      c-0.1-0.2-0.3-0.4-0.6-0.6c-0.3-0.1-0.7-0.2-1.3-0.2H201v4.8c0,0.6,0,1,0.1,1.2c0.1,0.1,0.2,0.2,0.3,0.3      c0.1,0.1,0.4,0.1,0.8,0.1h2.5c0.8,0,1.4-0.1,1.8-0.2s0.7-0.3,1.1-0.7c0.4-0.4,0.9-1.1,1.4-2h0.4l-1.3,3.6h-11.2v-0.4h0.5      c0.3,0,0.7-0.1,1-0.2c0.2-0.1,0.4-0.3,0.5-0.5c0.1-0.2,0.1-0.7,0.1-1.4v-9.4c0-0.9-0.1-1.5-0.3-1.7c-0.3-0.3-0.7-0.4-1.3-0.4      h-0.5V21H208l0.2,3.2h-0.4c-0.1-0.8-0.3-1.3-0.5-1.6s-0.5-0.5-0.8-0.7c-0.3-0.1-0.8-0.2-1.5-0.2H201z"></path>					<path class="st0" d="M209.5,21h3.9l8.9,10.9v-8.4c0-0.9-0.1-1.4-0.3-1.7c-0.3-0.3-0.7-0.4-1.3-0.4h-0.5V21h5v0.4h-0.5      c-0.6,0-1,0.2-1.3,0.6c-0.2,0.2-0.2,0.7-0.2,1.6v12.2h-0.4l-9.6-11.7V33c0,0.9,0.1,1.4,0.3,1.7c0.3,0.3,0.7,0.4,1.3,0.4h0.5      v0.4h-5v-0.4h0.5c0.6,0,1.1-0.2,1.3-0.6c0.2-0.2,0.2-0.7,0.2-1.6V22.9c-0.4-0.5-0.7-0.8-1-1s-0.5-0.3-1-0.4      c-0.2-0.1-0.5-0.1-0.9-0.1V21z"></path>					<path class="st0" d="M238.3,21l0.2,3.4H238c-0.1-0.6-0.2-1-0.3-1.3c-0.2-0.4-0.5-0.7-0.9-0.9c-0.4-0.2-0.8-0.3-1.4-0.3h-2V33      c0,0.9,0.1,1.4,0.3,1.7c0.3,0.3,0.7,0.4,1.3,0.4h0.5v0.4h-6.1v-0.4h0.5c0.6,0,1-0.2,1.3-0.6c0.2-0.2,0.2-0.7,0.2-1.6V21.9h-1.7      c-0.7,0-1.2,0.1-1.4,0.1c-0.4,0.1-0.7,0.4-1,0.8c-0.3,0.4-0.4,0.9-0.5,1.6h-0.4l0.2-3.4H238.3z"></path>					<path class="st0" d="M247.2,30.7h-5.6l-1,2.3c-0.2,0.6-0.4,1-0.4,1.3c0,0.2,0.1,0.4,0.3,0.6s0.7,0.3,1.4,0.3v0.4h-4.6v-0.4      c0.6-0.1,1-0.2,1.2-0.4c0.4-0.3,0.8-1,1.2-2.1l5.1-11.9h0.4l5,12.1c0.4,1,0.8,1.6,1.1,1.9c0.3,0.3,0.8,0.5,1.4,0.5v0.4h-5.7      v-0.4c0.6,0,1-0.1,1.2-0.3c0.2-0.2,0.3-0.4,0.3-0.6c0-0.3-0.1-0.8-0.4-1.5L247.2,30.7z M247,29.9l-2.5-5.9l-2.5,5.9H247z"></path>					<path class="st0" d="M265.6,31.5l0.4,0.1l-1.2,3.9h-11.2v-0.4h0.5c0.6,0,1.1-0.2,1.3-0.6c0.2-0.2,0.2-0.8,0.2-1.6v-9.4      c0-0.9-0.1-1.5-0.3-1.7c-0.3-0.3-0.7-0.5-1.2-0.5h-0.5V21h6.6v0.4c-0.8,0-1.3,0.1-1.6,0.2c-0.3,0.1-0.5,0.3-0.6,0.6      s-0.2,0.8-0.2,1.6v9.1c0,0.6,0.1,1,0.2,1.2c0.1,0.1,0.2,0.3,0.4,0.3c0.2,0.1,0.7,0.1,1.7,0.1h1.1c1.1,0,1.9-0.1,2.3-0.2      s0.9-0.5,1.2-0.9C264.9,33.1,265.2,32.4,265.6,31.5z"></path>					<path class="st0" d="M276.5,20.7v5h-0.4c-0.1-1-0.4-1.7-0.7-2.3c-0.3-0.6-0.8-1-1.4-1.4c-0.6-0.3-1.2-0.5-1.9-0.5      c-0.7,0-1.4,0.2-1.8,0.7c-0.5,0.5-0.7,1-0.7,1.5c0,0.4,0.2,0.8,0.5,1.2c0.4,0.5,1.5,1.2,3.2,2.1c1.4,0.7,2.3,1.3,2.8,1.7      c0.5,0.4,0.9,0.8,1.1,1.4c0.3,0.5,0.4,1.1,0.4,1.7c0,1.1-0.4,2-1.3,2.8s-1.9,1.2-3.3,1.2c-0.4,0-0.8,0-1.2-0.1      c-0.2,0-0.7-0.2-1.4-0.4S269.2,35,269,35c-0.2,0-0.3,0.1-0.4,0.2c-0.1,0.1-0.2,0.3-0.2,0.7h-0.4v-5h0.4c0.2,1,0.4,1.8,0.7,2.3      c0.3,0.5,0.8,0.9,1.4,1.3c0.6,0.3,1.4,0.5,2.1,0.5c0.9,0,1.6-0.2,2.1-0.7c0.5-0.5,0.8-1,0.8-1.7c0-0.4-0.1-0.7-0.3-1.1      c-0.2-0.4-0.5-0.7-0.9-1c-0.3-0.2-1-0.7-2.3-1.4c-1.2-0.7-2.1-1.2-2.6-1.7s-0.9-0.9-1.2-1.4c-0.3-0.5-0.4-1-0.4-1.6      c0-1,0.4-1.9,1.2-2.7c0.8-0.8,1.8-1.1,3-1.1c0.8,0,1.6,0.2,2.4,0.6c0.4,0.2,0.7,0.3,0.8,0.3c0.2,0,0.3-0.1,0.5-0.2      c0.1-0.1,0.2-0.3,0.3-0.7H276.5z"></path>				</g>			</g>		</g>	</g></g><g>	<g>		<g>			<g>				<g>					<rect x="-864.7" y="4034.4" class="st3" width="502.1" height="2.6"></rect>				</g>			</g>			<g>				<g>					<rect x="-218.3" y="4034.4" class="st3" width="502.1" height="2.7"></rect>				</g>			</g>		</g>		<g>			<g>				<g>					<rect x="-841.6" y="4259.5" class="st3" width="298.9" height="3"></rect>				</g>				<g>					<rect x="-76.7" y="4259.5" class="st3" width="335.3" height="3"></rect>				</g>			</g>		</g>	</g></g><g>			<text transform="matrix(1 0 0 1 -509.4971 4305.4956)" class="st3" style="font-family:'CenturyGothic'; font-size:98px; letter-spacing:27;">CABO</text></g><g>			<text transform="matrix(1 0 0 1 -856.7837 4164.9585)" class="st3" style="font-family:'CenturyGothic'; font-size:98px; letter-spacing:27;">LUXURY RENTALS</text></g><g>	<g>		<polygon class="st0" points="924.8,3033.6 950.3,3033.6 984.2,3083.5 1009.6,3083.5 960.7,3010.2 885.9,3010.2 960.7,3125    1068,3127.4 1082,3149.9 950.8,3149.9 842.5,2989.2 973.2,2988.7 1053,3104.5 974.7,3106.5   "></polygon>		<polygon class="st0" points="1065.5,2967.3 1051.6,2984.2 1113.9,3081.5 1154.8,3021.7 1062.5,2891.9 999.2,2987.2 1108.4,3148.4    1121.4,3127.9 1024.1,2986.2 1064,2928.9 1129.9,3024.2 1114.4,3041.6   "></polygon>		<polygon class="st0" points="1227.2,3032.1 1253.6,3033.1 1204.7,3104 1127.4,3105.5 1206.2,2987.7 1335.5,2990.2 1225.7,3152.4    1110.4,3151.4 1108.4,3148.4 1121.4,3127.9 1213.7,3127.9 1292.6,3010.2 1215.2,3010.7 1168.3,3083 1195.8,3083.5   "></polygon>		<polygon class="st0" points="1168.3,3003.7 1077,2870 1089.5,2850.5 1181.3,2984.7   "></polygon>		<polygon class="st0" points="1211.4,3168.7 1197.9,3193.1 980.1,3193.1 967.3,3170.2   "></polygon>	</g>	<g>		<g>			<g>				<g>					<g>						<g>							<g>								<g>									<rect x="1388.9" y="2919" class="st0" width="502.1" height="4.7"></rect>								</g>							</g>						</g>						<g>							<g>								<g>									<rect x="2035.3" y="2919" class="st0" width="502.1" height="4.7"></rect>								</g>							</g>						</g>					</g>				</g>			</g>		</g>		<g>			<g>				<g>					<rect x="1412.1" y="3156.9" class="st0" width="298.9" height="6"></rect>				</g>				<g>					<rect x="2177" y="3156.9" class="st0" width="335.3" height="6"></rect>				</g>			</g>			<g>									<text transform="matrix(1 0 0 1 1765.7803 3201.7349)" class="st0" style="font-family:'TimesNewRomanPSMT'; font-size:119.756px;">CABO</text>			</g>							<text transform="matrix(1 0 0 1 1354.9746 3061.1978)" class="st0" style="font-family:'TimesNewRomanPSMT'; font-size:135.8423px;">LUXURY RENTALS</text>		</g>	</g></g><g>	<g>		<polygon class="st3" points="924.8,3546.7 950.3,3546.7 984.2,3596.6 1009.6,3596.6 960.7,3523.2 885.9,3523.2 960.7,3638    1068,3640.5 1082,3663 950.8,3663 842.5,3502.3 973.2,3501.8 1053,3617.5 974.7,3619.5   "></polygon>		<polygon class="st3" points="1065.5,3480.3 1051.6,3497.3 1113.9,3594.6 1154.8,3534.7 1062.5,3405 999.2,3500.3 1108.4,3661.5    1121.4,3641 1024.1,3499.3 1064,3441.9 1129.9,3537.2 1114.4,3554.7   "></polygon>		<polygon class="st3" points="1227.2,3545.2 1253.6,3546.2 1204.7,3617 1127.4,3618.5 1206.2,3500.8 1335.5,3503.3 1225.7,3665.4    1110.4,3664.4 1108.4,3661.5 1121.4,3641 1213.7,3641 1292.6,3523.2 1215.2,3523.7 1168.3,3596.1 1195.8,3596.6   "></polygon>		<polygon class="st3" points="1168.3,3516.8 1077,3383 1089.5,3363.6 1181.3,3497.8   "></polygon>		<polygon class="st3" points="1211.4,3681.8 1197.9,3706.1 980.1,3706.1 967.3,3683.3   "></polygon>	</g>	<g>		<g>			<g>				<g>					<g>						<g>							<g>								<g>									<rect x="1388.9" y="3432" class="st3" width="502.1" height="4.7"></rect>								</g>							</g>						</g>						<g>							<g>								<g>									<rect x="2035.3" y="3432" class="st3" width="502.1" height="4.7"></rect>								</g>							</g>						</g>					</g>				</g>			</g>		</g>		<g>			<g>				<g>					<rect x="1412.1" y="3670" class="st3" width="298.9" height="6"></rect>				</g>				<g>					<rect x="2177" y="3670" class="st3" width="335.3" height="6"></rect>				</g>			</g>			<g>									<text transform="matrix(1 0 0 1 1765.7803 3714.7854)" class="st3" style="font-family:'TimesNewRomanPSMT'; font-size:119.756px;">CABO</text>			</g>							<text transform="matrix(1 0 0 1 1354.9746 3574.2483)" class="st3" style="font-family:'TimesNewRomanPSMT'; font-size:135.8423px;">LUXURY RENTALS</text>		</g>	</g></g><g>	<g>		<g>			<polygon class="st3" points="-1259.2,2005.6 -1233.7,2005.6 -1199.8,2055.5 -1174.4,2055.5 -1223.3,1982.2 -1298.1,1982.2     -1223.3,2097 -1116,2099.4 -1102,2121.9 -1233.2,2121.9 -1341.5,1961.2 -1210.8,1960.7 -1131,2076.5 -1209.3,2078.5    "></polygon>		</g>		<g>			<polygon class="st3" points="-1118.5,1939.3 -1132.4,1956.2 -1070.1,2053.5 -1029.2,1993.7 -1121.5,1863.9 -1184.8,1959.2     -1075.6,2120.4 -1062.6,2099.9 -1159.9,1958.2 -1120,1900.9 -1054.1,1996.2 -1069.6,2013.6    "></polygon>		</g>		<g>			<polygon class="st3" points="-956.8,2004.1 -930.4,2005.1 -979.3,2076 -1056.6,2077.5 -977.8,1959.7 -848.5,1962.2     -958.3,2124.4 -1073.6,2123.4 -1075.6,2120.4 -1062.6,2099.9 -970.3,2099.9 -891.4,1982.2 -968.8,1982.7 -1015.7,2055     -988.2,2055.5    "></polygon>		</g>		<g>			<polygon class="st3" points="-1015.7,1975.7 -1107,1842 -1094.5,1822.5 -1002.7,1956.7    "></polygon>		</g>		<g>			<polygon class="st3" points="-972.6,2140.7 -986.1,2165.1 -1203.9,2165.1 -1216.7,2142.2    "></polygon>		</g>	</g>	<g>		<g>			<g>				<g>					<rect x="-795.1" y="1891" class="st3" width="502.1" height="4.7"></rect>				</g>			</g>			<g>				<g>					<rect x="-148.7" y="1891" class="st3" width="502.1" height="4.7"></rect>				</g>			</g>		</g>		<g>			<g>				<g>					<rect x="-771.9" y="2128.9" class="st3" width="298.9" height="6"></rect>				</g>				<g>					<rect x="-7" y="2128.9" class="st3" width="335.3" height="6"></rect>				</g>			</g>			<g>				<path class="st3" d="M-346.1,2092.6l1.8,27h-1.8c-2.4-8.1-5.9-13.9-10.4-17.4c-4.5-3.5-9.9-5.3-16.1-5.3c-5.3,0-10,1.3-14.3,4     c-4.2,2.7-7.6,6.9-10,12.8c-2.4,5.8-3.7,13.1-3.7,21.8c0,7.2,1.2,13.4,3.5,18.7c2.3,5.3,5.8,9.3,10.4,12.1     c4.6,2.8,9.9,4.2,15.8,4.2c5.1,0,9.7-1.1,13.6-3.3c3.9-2.2,8.3-6.6,13-13.1l1.8,1.2c-4,7.1-8.6,12.2-13.9,15.5     c-5.3,3.3-11.6,4.9-18.9,4.9c-13.1,0-23.3-4.9-30.5-14.6c-5.4-7.3-8.1-15.8-8.1-25.6c0-7.9,1.8-15.2,5.3-21.8     c3.5-6.6,8.4-11.8,14.6-15.4c6.2-3.6,13-5.5,20.4-5.5c5.7,0,11.4,1.4,17,4.2c1.6,0.9,2.8,1.3,3.5,1.3c1.1,0,2-0.4,2.7-1.1     c1-1.1,1.7-2.5,2.2-4.4H-346.1z"></path>				<path class="st3" d="M-283.6,2147.2h-30.7l-5.4,12.5c-1.3,3.1-2,5.4-2,6.9c0,1.2,0.6,2.3,1.7,3.2c1.1,0.9,3.6,1.5,7.5,1.8v2.2     h-25v-2.2c3.3-0.6,5.5-1.3,6.4-2.3c2-1.9,4.2-5.7,6.6-11.4l27.9-65.3h2l27.6,66c2.2,5.3,4.2,8.7,6.1,10.3     c1.8,1.6,4.3,2.5,7.6,2.7v2.2h-31.3v-2.2c3.2-0.2,5.3-0.7,6.4-1.6c1.1-0.9,1.7-2,1.7-3.3c0-1.7-0.8-4.4-2.3-8.1L-283.6,2147.2z      M-285.2,2142.9l-13.4-32l-13.8,32H-285.2z"></path>				<path class="st3" d="M-196.5,2133.3c5.5,1.2,9.6,3,12.3,5.6c3.8,3.6,5.7,8,5.7,13.2c0,3.9-1.2,7.7-3.7,11.3     c-2.5,3.6-5.9,6.2-10.3,7.9c-4.3,1.7-11,2.5-19.9,2.5h-37.4v-2.2h3c3.3,0,5.7-1.1,7.1-3.2c0.9-1.4,1.3-4.3,1.3-8.7v-51.2     c0-4.9-0.6-8-1.7-9.3c-1.5-1.7-3.8-2.6-6.8-2.6h-3v-2.2h34.3c6.4,0,11.5,0.5,15.4,1.4c5.8,1.4,10.3,3.9,13.4,7.5     c3.1,3.6,4.6,7.7,4.6,12.3c0,4-1.2,7.5-3.6,10.7C-188.3,2129.4-191.8,2131.8-196.5,2133.3z M-227.2,2130.1     c1.4,0.3,3.1,0.5,4.9,0.6c1.9,0.1,3.9,0.2,6.1,0.2c5.7,0,10-0.6,12.8-1.8c2.9-1.2,5.1-3.1,6.6-5.6c1.5-2.5,2.3-5.3,2.3-8.3     c0-4.6-1.9-8.6-5.7-11.9c-3.8-3.3-9.3-4.9-16.5-4.9c-3.9,0-7.4,0.4-10.5,1.3V2130.1z M-227.2,2168c4.5,1.1,9,1.6,13.4,1.6     c7.1,0,12.4-1.6,16.1-4.8c3.7-3.2,5.6-7.1,5.6-11.8c0-3.1-0.8-6-2.5-8.9c-1.7-2.8-4.4-5.1-8.2-6.7c-3.8-1.6-8.5-2.5-14-2.5     c-2.4,0-4.5,0-6.2,0.1c-1.7,0.1-3.1,0.2-4.2,0.4V2168z"></path>				<path class="st3" d="M-128.2,2092.6c10.3,0,19.2,3.9,26.8,11.7c7.5,7.8,11.3,17.6,11.3,29.3c0,12-3.8,22-11.4,30     c-7.6,8-16.8,11.9-27.6,11.9c-10.9,0-20.1-3.9-27.5-11.6c-7.4-7.8-11.1-17.8-11.1-30.1c0-12.6,4.3-22.9,12.9-30.8     C-147.5,2096.1-138.6,2092.6-128.2,2092.6z M-129.3,2096.9c-7.1,0-12.8,2.6-17.1,7.9c-5.3,6.5-8,16.1-8,28.8     c0,12.9,2.8,22.9,8.3,29.9c4.2,5.3,9.9,8,16.8,8c7.4,0,13.6-2.9,18.4-8.7c4.9-5.8,7.3-15,7.3-27.5c0-13.6-2.7-23.7-8-30.3     C-115.8,2099.6-121.7,2096.9-129.3,2096.9z"></path>			</g>			<g>				<path class="st3" d="M-739.4,2008.3l2.2,0.5l-7.7,24.4h-69.6v-2.5h3.4c3.8,0,6.5-1.2,8.2-3.7c0.9-1.4,1.4-4.7,1.4-9.8v-58     c0-5.6-0.6-9.1-1.9-10.5c-1.7-1.9-4.3-2.9-7.7-2.9h-3.4v-2.5h40.7v2.5c-4.8,0-8.1,0.4-10,1.3c-1.9,0.9-3.2,2.1-3.9,3.5     c-0.7,1.4-1.1,4.8-1.1,10.1v56.5c0,3.7,0.4,6.2,1.1,7.6c0.5,0.9,1.3,1.6,2.5,2.1c1.1,0.4,4.6,0.7,10.3,0.7h6.6     c6.9,0,11.7-0.5,14.5-1.5c2.8-1,5.3-2.8,7.6-5.4C-744,2018-741.7,2013.9-739.4,2008.3z"></path>				<path class="st3" d="M-669.5,1945.7v-2.5h31.8v2.5h-3.4c-3.5,0-6.3,1.5-8.2,4.4c-0.9,1.4-1.4,4.6-1.4,9.6v36.5     c0,9-0.9,16-2.7,21c-1.8,5-5.3,9.2-10.5,12.8c-5.2,3.6-12.4,5.3-21.4,5.3c-9.8,0-17.3-1.7-22.4-5.1c-5.1-3.4-8.7-8-10.8-13.7     c-1.4-3.9-2.1-11.3-2.1-22.2v-35.2c0-5.5-0.8-9.2-2.3-10.9c-1.5-1.7-4-2.6-7.4-2.6h-3.4v-2.5h38.9v2.5h-3.4     c-3.7,0-6.4,1.2-8,3.5c-1.1,1.6-1.7,4.9-1.7,9.9v39.2c0,3.5,0.3,7.5,1,12c0.6,4.5,1.8,8,3.5,10.5c1.7,2.5,4.1,4.6,7.3,6.2     c3.2,1.6,7,2.5,11.6,2.5c5.9,0,11.1-1.3,15.8-3.8c4.6-2.6,7.8-5.8,9.5-9.9c1.7-4,2.6-10.8,2.6-20.3v-36.4     c0-5.6-0.6-9.1-1.9-10.5c-1.7-1.9-4.3-2.9-7.7-2.9H-669.5z"></path>				<path class="st3" d="M-580.8,1983.4l19.3,28.8c5.4,8,9.3,13,11.9,15.1c2.6,2.1,5.9,3.3,9.9,3.5v2.5h-38.6v-2.5     c2.6,0,4.5-0.3,5.7-0.8c0.9-0.4,1.7-1,2.3-1.8c0.6-0.8,0.9-1.6,0.9-2.5c0-1-0.2-2-0.6-3.1c-0.3-0.8-1.5-2.7-3.6-5.8l-15.3-23.1     l-18.8,24.1c-2,2.6-3.2,4.3-3.6,5.1s-0.6,1.8-0.6,2.7c0,1.4,0.6,2.6,1.8,3.5s3.5,1.5,6.8,1.6v2.5h-31.9v-2.5     c2.3-0.2,4.2-0.7,5.8-1.4c2.7-1.1,5.3-2.7,7.8-4.6c2.5-1.9,5.3-4.9,8.5-9l21.2-26.8l-17.7-25.9c-4.8-7-8.9-11.6-12.3-13.8     c-3.4-2.2-7.2-3.3-11.6-3.5v-2.5h41.6v2.5c-3.5,0.1-6,0.7-7.3,1.7c-1.3,1-2,2.1-2,3.4c0,1.6,1.1,4,3.2,7.2l13.8,20.6l16-20.2     c1.9-2.4,3-4,3.4-4.9c0.4-0.9,0.6-1.8,0.6-2.7c0-0.9-0.3-1.7-0.8-2.5c-0.7-0.9-1.5-1.6-2.5-2c-1-0.4-3.1-0.6-6.3-0.6v-2.5h31.9     v2.5c-2.5,0.1-4.6,0.5-6.2,1.2c-2.4,1-4.6,2.4-6.6,4.1c-2,1.7-4.8,4.9-8.4,9.6L-580.8,1983.4z"></path>				<path class="st3" d="M-473.3,1945.7v-2.5h31.8v2.5h-3.4c-3.5,0-6.3,1.5-8.2,4.4c-0.9,1.4-1.4,4.6-1.4,9.6v36.5     c0,9-0.9,16-2.7,21c-1.8,5-5.3,9.2-10.5,12.8c-5.2,3.6-12.4,5.3-21.4,5.3c-9.8,0-17.3-1.7-22.4-5.1c-5.1-3.4-8.7-8-10.8-13.7     c-1.4-3.9-2.1-11.3-2.1-22.2v-35.2c0-5.5-0.8-9.2-2.3-10.9c-1.5-1.7-4-2.6-7.4-2.6h-3.4v-2.5h38.9v2.5h-3.4     c-3.7,0-6.4,1.2-8,3.5c-1.1,1.6-1.7,4.9-1.7,9.9v39.2c0,3.5,0.3,7.5,1,12c0.6,4.5,1.8,8,3.5,10.5c1.7,2.5,4.1,4.6,7.3,6.2     c3.2,1.6,7,2.5,11.6,2.5c5.9,0,11.1-1.3,15.8-3.8c4.6-2.6,7.8-5.8,9.5-9.9c1.7-4,2.6-10.8,2.6-20.3v-36.4     c0-5.6-0.6-9.1-1.9-10.5c-1.7-1.9-4.3-2.9-7.7-2.9H-473.3z"></path>				<path class="st3" d="M-348.2,2033.2h-24l-30.4-42.1c-2.3,0.1-4.1,0.1-5.5,0.1c-0.6,0-1.2,0-1.9,0c-0.7,0-1.3-0.1-2.1-0.1v26.1     c0,5.7,0.6,9.2,1.9,10.5c1.7,1.9,4.2,2.9,7.6,2.9h3.5v2.5h-38.5v-2.5h3.4c3.8,0,6.5-1.2,8.2-3.7c0.9-1.4,1.4-4.6,1.4-9.8v-58.1     c0-5.7-0.6-9.2-1.9-10.5c-1.7-1.9-4.3-2.9-7.7-2.9h-3.4v-2.5h32.8c9.6,0,16.6,0.7,21.1,2.1c4.5,1.4,8.4,4,11.5,7.7     c3.2,3.7,4.7,8.2,4.7,13.4c0,5.5-1.8,10.3-5.4,14.4c-3.6,4.1-9.2,6.9-16.7,8.6l18.6,25.8c4.2,5.9,7.9,9.9,10.9,11.8     c3.1,1.9,7,3.2,11.9,3.7V2033.2z M-412.1,1987c0.8,0,1.6,0,2.2,0c0.6,0,1.1,0,1.5,0c8.6,0,15-1.9,19.4-5.6     c4.4-3.7,6.5-8.4,6.5-14.2c0-5.6-1.8-10.2-5.3-13.7c-3.5-3.5-8.2-5.3-14-5.3c-2.6,0-6,0.4-10.4,1.3V1987z"></path>				<path class="st3" d="M-292.2,1943.3h31.4v2.5h-1.7c-1.2,0-2.8,0.5-5,1.5c-2.2,1-4.2,2.5-6,4.4c-1.8,1.9-4,5-6.7,9.3l-21.7,34.2     v22.6c0,5.5,0.6,9,1.9,10.3c1.7,1.9,4.3,2.8,8,2.8h2.9v2.5h-38.2v-2.5h3.2c3.8,0,6.5-1.1,8.1-3.4c1-1.4,1.5-4.6,1.5-9.7v-21.3     l-24.7-37.7c-2.9-4.4-4.9-7.2-5.9-8.3c-1-1.1-3.2-2.4-6.5-4c-0.9-0.4-2.2-0.7-3.8-0.7v-2.5h38.5v2.5h-2c-2.1,0-4,0.5-5.7,1.5     c-1.7,1-2.6,2.4-2.6,4.4c0,1.6,1.3,4.5,4,8.6l18.8,29l17.6-27.7c2.7-4.2,4-7.3,4-9.3c0-1.2-0.3-2.3-1-3.3     c-0.6-1-1.6-1.7-2.8-2.3c-1.2-0.6-3-0.8-5.4-0.8V1943.3z"></path>				<path class="st3" d="M-138.1,2033.2h-24l-30.4-42.1c-2.3,0.1-4.1,0.1-5.5,0.1c-0.6,0-1.2,0-1.9,0c-0.7,0-1.3-0.1-2.1-0.1v26.1     c0,5.7,0.6,9.2,1.9,10.5c1.7,1.9,4.2,2.9,7.6,2.9h3.5v2.5h-38.5v-2.5h3.4c3.8,0,6.5-1.2,8.2-3.7c0.9-1.4,1.4-4.6,1.4-9.8v-58.1     c0-5.7-0.6-9.2-1.9-10.5c-1.7-1.9-4.3-2.9-7.7-2.9h-3.4v-2.5h32.8c9.6,0,16.6,0.7,21.1,2.1c4.5,1.4,8.4,4,11.5,7.7     c3.2,3.7,4.7,8.2,4.7,13.4c0,5.5-1.8,10.3-5.4,14.4c-3.6,4.1-9.2,6.9-16.7,8.6l18.6,25.8c4.2,5.9,7.9,9.9,10.9,11.8     c3.1,1.9,7,3.2,11.9,3.7V2033.2z M-202,1987c0.8,0,1.6,0,2.2,0c0.6,0,1.1,0,1.5,0c8.6,0,15-1.9,19.4-5.6     c4.4-3.7,6.5-8.4,6.5-14.2c0-5.6-1.8-10.2-5.3-13.7c-3.5-3.5-8.2-5.3-14-5.3c-2.6,0-6,0.4-10.4,1.3V1987z"></path>				<path class="st3" d="M-110.9,1948.2v35.6h19.8c5.1,0,8.6-0.8,10.3-2.3c2.3-2,3.6-5.6,3.8-10.7h2.5v31.3H-77     c-0.6-4.4-1.2-7.2-1.9-8.4c-0.8-1.5-2.1-2.8-3.9-3.6c-1.8-0.9-4.6-1.3-8.4-1.3h-19.8v29.6c0,4,0.2,6.4,0.5,7.3s1,1.5,1.9,2.1     c0.9,0.5,2.6,0.8,5,0.8h15.3c5.1,0,8.8-0.4,11.1-1.1c2.3-0.7,4.5-2.1,6.6-4.2c2.7-2.7,5.5-6.9,8.4-12.4h2.7l-7.8,22.6h-69.3     v-2.5h3.2c2.1,0,4.1-0.5,6-1.5c1.4-0.7,2.4-1.8,2.9-3.2c0.5-1.4,0.8-4.3,0.8-8.7v-58.4c0-5.7-0.6-9.2-1.7-10.5     c-1.6-1.8-4.2-2.7-8-2.7h-3.2v-2.5h69.3l1,19.7h-2.6c-0.9-4.7-2-8-3.1-9.8c-1.1-1.8-2.8-3.1-5-4c-1.8-0.7-4.9-1-9.4-1H-110.9z"></path>				<path class="st3" d="M-58.1,1943.3h24.4l55,67.5v-51.9c0-5.5-0.6-9-1.9-10.3c-1.6-1.9-4.2-2.8-7.8-2.8H8.5v-2.5h31.3v2.5h-3.2     c-3.8,0-6.5,1.2-8.1,3.4c-1,1.4-1.5,4.6-1.5,9.7v75.8h-2.4l-59.3-72.4v55.4c0,5.5,0.6,9,1.8,10.3c1.7,1.9,4.3,2.8,7.8,2.8h3.2     v2.5h-31.3v-2.5h3.1c3.8,0,6.6-1.1,8.2-3.4c1-1.4,1.5-4.6,1.5-9.7v-62.5c-2.6-3.1-4.6-5.1-5.9-6c-1.3-1-3.3-1.9-5.9-2.7     c-1.3-0.4-3.2-0.6-5.8-0.6V1943.3z"></path>				<path class="st3" d="M120.4,1943.3l1,21.1h-2.5c-0.5-3.7-1.2-6.4-2-8c-1.4-2.6-3.2-4.5-5.5-5.7c-2.3-1.2-5.3-1.8-9-1.8H89.7     v68.7c0,5.5,0.6,9,1.8,10.3c1.7,1.9,4.3,2.8,7.8,2.8h3.1v2.5H64.3v-2.5h3.2c3.8,0,6.5-1.1,8.1-3.4c1-1.4,1.5-4.6,1.5-9.7v-68.7     H66.2c-4.2,0-7.2,0.3-9,0.9c-2.3,0.8-4.3,2.5-5.9,4.8c-1.6,2.4-2.6,5.6-2.9,9.7h-2.5l1.1-21.1H120.4z"></path>				<path class="st3" d="M176,2003.1h-34.8l-6.1,14.2c-1.5,3.5-2.3,6.1-2.3,7.8c0,1.4,0.7,2.6,2,3.6c1.3,1,4.1,1.7,8.5,2v2.5h-28.3     v-2.5c3.8-0.7,6.2-1.5,7.3-2.6c2.3-2.1,4.8-6.4,7.5-12.9l31.6-74h2.3L195,2016c2.5,6,4.8,9.9,6.9,11.7c2.1,1.8,4.9,2.8,8.6,3     v2.5H175v-2.5c3.6-0.2,6-0.8,7.3-1.8c1.3-1,1.9-2.3,1.9-3.7c0-1.9-0.9-5-2.7-9.2L176,2003.1z M174.2,1998.2l-15.3-36.3     l-15.7,36.3H174.2z"></path>				<path class="st3" d="M289.8,2008.3l2.2,0.5l-7.7,24.4h-69.6v-2.5h3.4c3.8,0,6.5-1.2,8.2-3.7c0.9-1.4,1.4-4.7,1.4-9.8v-58     c0-5.6-0.6-9.1-1.9-10.5c-1.7-1.9-4.3-2.9-7.7-2.9h-3.4v-2.5h40.7v2.5c-4.8,0-8.1,0.4-10,1.3c-1.9,0.9-3.2,2.1-3.9,3.5     c-0.7,1.4-1.1,4.8-1.1,10.1v56.5c0,3.7,0.4,6.2,1.1,7.6c0.5,0.9,1.3,1.6,2.5,2.1c1.1,0.4,4.6,0.7,10.3,0.7h6.6     c6.9,0,11.7-0.5,14.5-1.5c2.8-1,5.3-2.8,7.6-5.4C285.2,2018,287.5,2013.9,289.8,2008.3z"></path>				<path class="st3" d="M357.2,1941.2v31.1h-2.5c-0.8-6-2.2-10.7-4.3-14.3c-2.1-3.5-5-6.3-8.8-8.4c-3.8-2.1-7.7-3.1-11.8-3.1     c-4.6,0-8.4,1.4-11.4,4.2c-3,2.8-4.5,6-4.5,9.6c0,2.7,1,5.2,2.9,7.5c2.7,3.3,9.3,7.7,19.6,13.3c8.4,4.5,14.1,8,17.2,10.4     c3.1,2.4,5.4,5.3,7.1,8.5c1.7,3.3,2.5,6.7,2.5,10.3c0,6.8-2.6,12.7-7.9,17.6c-5.3,4.9-12.1,7.4-20.4,7.4c-2.6,0-5.1-0.2-7.4-0.6     c-1.4-0.2-4.2-1-8.5-2.4c-4.3-1.4-7-2.1-8.2-2.1c-1.1,0-2,0.3-2.6,1c-0.6,0.7-1.1,2-1.4,4.1h-2.5v-30.8h2.5     c1.2,6.5,2.7,11.3,4.6,14.5c1.9,3.2,4.9,5.9,8.9,8c4,2.1,8.4,3.2,13.2,3.2c5.5,0,9.9-1.5,13.1-4.4c3.2-2.9,4.8-6.4,4.8-10.3     c0-2.2-0.6-4.4-1.8-6.7c-1.2-2.3-3.1-4.4-5.7-6.3c-1.7-1.3-6.4-4.1-14.1-8.5c-7.7-4.3-13.2-7.7-16.4-10.3     c-3.2-2.6-5.7-5.4-7.4-8.5c-1.7-3.1-2.5-6.5-2.5-10.2c0-6.5,2.5-12,7.4-16.7c5-4.7,11.3-7,18.9-7c4.8,0,9.8,1.2,15.2,3.5     c2.5,1.1,4.2,1.7,5.2,1.7c1.2,0,2.1-0.3,2.8-1c0.7-0.7,1.3-2.1,1.8-4.1H357.2z"></path>			</g>		</g>	</g></g><g>	<g>		<g>			<g>				<polygon class="st0" points="924.8,2046.4 950.3,2046.4 984.2,2096.3 1009.6,2096.3 960.7,2023 885.9,2023 960.7,2137.7      1068,2140.2 1082,2162.7 950.8,2162.7 842.5,2002 973.2,2001.5 1053,2117.3 974.7,2119.3     "></polygon>			</g>			<g>				<polygon class="st0" points="1065.5,1980.1 1051.6,1997 1113.9,2094.3 1154.8,2034.5 1062.5,1904.7 999.2,2000 1108.4,2161.2      1121.4,2140.7 1024.1,1999 1064,1941.6 1129.9,2036.9 1114.4,2054.4     "></polygon>			</g>			<g>				<polygon class="st0" points="1227.2,2044.9 1253.6,2045.9 1204.7,2116.8 1127.4,2118.3 1206.2,2000.5 1335.5,2003      1225.7,2165.2 1110.4,2164.2 1108.4,2161.2 1121.4,2140.7 1213.7,2140.7 1292.6,2023 1215.2,2023.5 1168.3,2095.8      1195.8,2096.3     "></polygon>			</g>			<g>				<polygon class="st0" points="1168.3,2016.5 1077,1882.8 1089.5,1863.3 1181.3,1997.5     "></polygon>			</g>			<g>				<polygon class="st0" points="1211.4,2181.5 1197.9,2205.9 980.1,2205.9 967.3,2183     "></polygon>			</g>		</g>	</g>	<g>		<g>			<g>				<g>					<rect x="1388.9" y="1931.8" class="st0" width="502.1" height="4.7"></rect>				</g>			</g>			<g>				<g>					<rect x="2035.3" y="1931.8" class="st0" width="502.1" height="4.7"></rect>				</g>			</g>		</g>	</g>	<g>		<g>			<g>				<g>					<rect x="1412.1" y="2169.7" class="st0" width="298.9" height="6"></rect>				</g>			</g>			<g>				<g>					<rect x="2177" y="2169.7" class="st0" width="335.3" height="6"></rect>				</g>			</g>		</g>	</g>	<path class="st0" d="M1813.1,2212.7c-6.2,0-11.8-1.5-16.6-4.4c-4.9-3-8.6-7.3-11-12.8c-2.4-5.4-3.6-11.9-3.6-19.3  c0-8.9,1.3-16.4,3.8-22.4c2.5-6.1,6.1-10.6,10.6-13.5c4.5-2.8,9.5-4.2,15.1-4.2c6.6,0,12.3,1.9,17.1,5.6c3.9,3.1,7,7.7,9.4,13.9  l-1.3-19.7c-0.5,1.1-1.1,2-1.8,2.8c-1.1,1.1-2.4,1.6-3.8,1.6c-1,0-2.3-0.4-4.2-1.5c-5.3-2.7-10.8-4-16.3-4  c-7.1,0-13.7,1.8-19.6,5.3c-5.9,3.5-10.7,8.5-14.1,14.8c-3.4,6.4-5.1,13.5-5.1,21.1c0,9.4,2.6,17.8,7.8,24.7  c6.9,9.3,16.7,14,29.3,14c7,0,13.1-1.6,18.1-4.7c2.6-1.6,5-3.7,7.3-6.2c-2.3,2.3-4.5,4.1-6.6,5.3  C1823.3,2211.5,1818.5,2212.7,1813.1,2212.7z"></path>	<path class="st0" d="M1915.8,2200l-27.2-65h-0.1l-27.5,64.3c-2.5,6-4.8,9.9-7,11.9c-0.8,0.7-2,1.3-3.6,1.9h15.5  c-1.2-0.3-2.1-0.8-2.7-1.3c-1.9-1.5-2.3-3.2-2.3-4.4c0-1.7,0.7-4.2,2.1-7.5l5.8-13.4h32.7l5.2,12.3c1.7,3.9,2.5,6.8,2.5,8.7  c0,1.7-0.8,3.3-2.2,4.4c-0.5,0.4-1.2,0.8-2.1,1.1h21.4c-1.5-0.5-2.8-1.2-3.9-2.2C1920.2,2209.1,1918.1,2205.5,1915.8,2200z   M1869.3,2185.1l16.1-37.4l15.7,37.4H1869.3z"></path>	<path class="st0" d="M1987.1,2175.5l-5.5-1.2l5.4-1.7c4.4-1.4,7.8-3.6,10-6.5c2.2-2.9,3.3-6.1,3.3-9.8c0-4.3-1.4-8-4.3-11.3  c-2.9-3.3-7.1-5.7-12.6-7c-3.7-0.9-8.8-1.4-15-1.4h-26.6c1.3,0.5,2.3,1.3,3.2,2.2c1.4,1.6,2.1,4.9,2.1,10.3v51.2  c0,4.9-0.5,7.9-1.6,9.5c-0.9,1.4-2.2,2.4-3.7,3h29.8c8.7,0,15.2-0.8,19.4-2.4c4-1.5,7.3-4,9.6-7.3c2.3-3.3,3.5-6.9,3.5-10.5  c0-4.8-1.7-8.7-5.2-12.1C1996.3,2178.4,1992.3,2176.6,1987.1,2175.5z M1955.3,2139.3l1.1-0.3c3.2-0.9,6.9-1.3,10.9-1.3  c7.6,0,13.5,1.8,17.5,5.3c4.1,3.6,6.2,7.9,6.2,13c0,3.3-0.8,6.3-2.5,9.1c-1.7,2.8-4.1,4.9-7.3,6.2c-3.1,1.3-7.5,2-13.4,2  c-2.3,0-4.4-0.1-6.2-0.2c-1.9-0.1-3.6-0.4-5.1-0.6l-1.2-0.2V2139.3z M1987.3,2206.7c-4,3.4-9.7,5.1-17.1,5.1  c-4.5,0-9.1-0.5-13.7-1.6l-1.2-0.3V2175l1.2-0.2c1.1-0.2,2.5-0.4,4.4-0.4c1.7-0.1,3.8-0.1,6.3-0.1c5.8,0,10.7,0.9,14.6,2.6  c4.1,1.8,7,4.2,8.9,7.3c1.8,3.1,2.7,6.3,2.7,9.6C1993.4,2198.9,1991.4,2203.3,1987.3,2206.7z"></path>	<path class="st0" d="M2081.5,2146.2c-7.2-7.5-15.9-11.3-25.7-11.3c-9.9,0-18.6,3.3-25.7,10c-8.2,7.6-12.4,17.6-12.4,29.7  c0,11.9,3.6,21.6,10.7,29.1c7.1,7.4,16,11.2,26.4,11.2c10.3,0,19.2-3.9,26.5-11.5c7.3-7.6,11-17.4,11-29  C2092.4,2163.2,2088.7,2153.7,2081.5,2146.2z M2074.4,2204.4c-5.1,6.1-11.7,9.3-19.6,9.3c-7.4,0-13.5-2.9-18-8.5  c-5.7-7.2-8.6-17.6-8.6-30.8c0-12.9,2.8-22.9,8.3-29.7c4.6-5.6,10.7-8.4,18.2-8.4c8,0,14.4,2.9,18.9,8.5c5.5,6.9,8.3,17.4,8.3,31.3  C2082,2188.8,2079.4,2198.4,2074.4,2204.4z"></path>	<path class="st0" d="M1415.5,2069.8h-6.6c-8,0-10-0.4-10.9-0.8c-1.4-0.6-2.5-1.5-3.2-2.7c-0.9-1.7-1.3-4.4-1.3-8.3v-56.5  c0-7.5,0.7-9.8,1.2-10.8c0.9-1.7,2.4-3.1,4.6-4.2c0.8-0.4,1.8-0.7,3-0.9h-25.5c1.9,0.5,3.4,1.5,4.7,2.9c1.5,1.7,2.2,5.4,2.2,11.5  v58c0,7.3-0.9,9.6-1.6,10.6c-1.2,1.9-3,3.2-5.3,3.8h61l5.4-17.2c-1.5,3-3.1,5.3-4.6,7c-2.5,2.8-5.2,4.7-8.2,5.8  C1427.6,2069.3,1422.6,2069.8,1415.5,2069.8z"></path>	<path class="st0" d="M1528.9,2000v36.4c0,9.8-0.9,16.7-2.7,20.9c-1.8,4.3-5.2,7.9-10.2,10.6c-4.8,2.7-10.4,4-16.5,4  c-4.8,0-9-0.9-12.3-2.6c-3.4-1.7-6-4-7.8-6.7c-1.8-2.7-3-6.5-3.7-11.2c-0.6-4.6-1-8.7-1-12.2V2000c0-5.5,0.6-8.9,1.9-10.8  c1.2-1.8,2.9-3,5.1-3.6h-23.6c1.7,0.5,3.2,1.4,4.2,2.5c1.8,2,2.7,5.9,2.7,11.9v35.2c0,10.6,0.7,17.9,2,21.6c2,5.4,5.4,9.8,10.2,13  c4.8,3.2,12,4.9,21.5,4.9c8.7,0,15.6-1.7,20.5-5.1c4.9-3.4,8.3-7.4,10-12.1c1.7-4.8,2.6-11.7,2.6-20.5v-36.5  c0-5.4,0.5-8.7,1.7-10.4c1.5-2.3,3.4-3.8,5.7-4.6H1522c1.9,0.5,3.4,1.5,4.7,2.9C1528.2,1990.2,1528.9,1993.8,1528.9,2000z"></path>	<path class="st0" d="M1621.3,2053.8l-19.9-29.7l18.5-23.7c3.7-4.8,6.5-8,8.6-9.8c2.1-1.8,4.4-3.3,7-4.4c0.7-0.3,1.6-0.6,2.5-0.8  h-21.4c0.2,0.1,0.4,0.1,0.6,0.2c1.3,0.5,2.4,1.3,3.2,2.5c0.7,0.9,1.1,2.1,1.1,3.3c0,1.1-0.3,2.3-0.8,3.4c-0.5,1-1.6,2.7-3.6,5.2  l-17.3,21.9l-14.9-22.3c-2.3-3.4-3.4-6-3.4-8c0-1.7,0.9-3.3,2.5-4.6c0.8-0.7,2-1.2,3.5-1.5h-32.2c2.8,0.6,5.4,1.7,7.7,3.2  c3.6,2.3,7.7,7,12.7,14.2l18.3,26.8l-21.9,27.7c-3.2,4.1-6.2,7.2-8.7,9.2c-2.6,2-5.3,3.7-8.2,4.8c-0.9,0.4-1.9,0.7-3,1h23.9  c-1.4-0.3-2.4-0.8-3.2-1.4c-1.6-1.2-2.4-2.8-2.4-4.7c0-1.1,0.2-2.3,0.7-3.3c0.3-0.6,1-1.9,3.8-5.4l20.1-25.8l16.4,24.8  c2.9,4.3,3.6,5.5,3.8,6.1c0.5,1.2,0.7,2.4,0.7,3.6c0,1.2-0.4,2.3-1.2,3.4c-0.8,1-1.7,1.8-2.9,2.3c-0.4,0.1-0.7,0.3-1.2,0.4h29.5  c-2.6-0.6-4.9-1.7-6.8-3.3C1630.7,2067,1626.8,2062,1621.3,2053.8z"></path>	<path class="st0" d="M1725.1,2000v36.4c0,9.8-0.9,16.7-2.7,20.9c-1.8,4.3-5.3,7.9-10.2,10.6c-4.8,2.7-10.4,4-16.5,4  c-4.8,0-9-0.9-12.3-2.6c-3.4-1.7-6-4-7.8-6.7c-1.8-2.7-3-6.5-3.7-11.2c-0.6-4.6-1-8.7-1-12.2V2000c0-5.5,0.6-8.9,1.9-10.8  c1.2-1.8,2.9-3,5.1-3.6h-23.6c1.7,0.5,3.2,1.4,4.2,2.5c1.8,2,2.7,5.9,2.7,11.9v35.2c0,10.6,0.7,17.9,2,21.6c2,5.4,5.4,9.8,10.2,13  c4.8,3.2,12.1,4.9,21.5,4.9c8.7,0,15.6-1.7,20.5-5.1c4.9-3.4,8.3-7.4,10-12.1c1.7-4.8,2.6-11.7,2.6-20.5v-36.5  c0-5.4,0.5-8.7,1.7-10.4c1.5-2.3,3.4-3.8,5.7-4.6h-17.2c1.9,0.5,3.4,1.5,4.7,2.9C1724.4,1990.2,1725.1,1993.8,1725.1,2000z"></path>	<path class="st0" d="M1811.7,2056.9l-19.9-27.6l2.2-0.5c7.2-1.6,12.6-4.3,16-8.2c3.4-3.8,5-8.2,5-13.4c0-4.9-1.4-8.9-4.4-12.4  c-3-3.5-6.6-5.9-10.8-7.2c-4.4-1.3-11.3-2-20.7-2h-25.2c1.9,0.5,3.4,1.5,4.7,2.9c1.5,1.7,2.2,5.4,2.2,11.5v58.1  c0,7.3-0.9,9.5-1.7,10.6c-1.2,1.9-3,3.2-5.3,3.8h23.4c-1.9-0.6-3.4-1.5-4.6-2.9c-1.5-1.7-2.2-5.3-2.2-11.5v-27.7l1.6,0.1  c0.7,0,1.4,0.1,2,0.1c0.6,0,1.2,0,1.8,0c1.4,0,3.2,0,5.4-0.1l0.8,0l30.5,42.1h19.5c-3.5-0.7-6.6-1.8-9-3.4  C1819.8,2067,1816.1,2063,1811.7,2056.9z M1775.6,2029.3c-0.4,0-0.9,0-1.6,0c-0.6,0-1.3,0-2.1,0h-1.5v-40.1l1.2-0.2  c4.5-0.9,8.1-1.3,10.7-1.3c6.2,0,11.2,1.9,15,5.7s5.7,8.8,5.7,14.8c0,6.2-2.4,11.3-7.1,15.3  C1791.4,2027.3,1784.5,2029.3,1775.6,2029.3z"></path>	<path class="st0" d="M1901.2,1988.8c0.8,1.2,1.2,2.6,1.2,4.1c0,2.3-1.4,5.7-4.2,10.1l-18.9,29.7l-20-30.9c-3.8-5.9-4.3-8.2-4.3-9.4  c0-2.5,1.2-4.5,3.4-5.7c0.8-0.5,1.7-0.8,2.6-1.1h-28.8c0.2,0.1,0.4,0.2,0.6,0.3c3.4,1.6,5.7,3,6.9,4.3c1.1,1.2,3.1,4,6.1,8.5  l24.9,38.1v21.7c0,5.5-0.5,8.8-1.7,10.5c-1.2,1.7-2.9,2.9-5.1,3.6h23.4c-1.9-0.5-3.5-1.4-4.6-2.7c-1.5-1.7-2.2-5.3-2.2-11.4v-23  l21.9-34.5c2.7-4.4,5-7.5,6.9-9.5c1.9-2,4.1-3.6,6.5-4.7c1-0.5,2-0.8,2.8-1.1h-21.9c0.4,0.1,0.8,0.3,1.1,0.4  C1899.3,1986.6,1900.4,1987.6,1901.2,1988.8z"></path>	<path class="st0" d="M2021.8,2056.9l-19.9-27.6l2.2-0.5c7.2-1.6,12.6-4.3,16-8.2c3.4-3.8,5-8.2,5-13.4c0-4.9-1.4-8.9-4.4-12.4  c-3-3.5-6.6-5.9-10.8-7.2c-4.4-1.3-11.3-2-20.7-2H1964c1.9,0.5,3.4,1.5,4.7,2.9c1.5,1.7,2.2,5.4,2.2,11.5v58.1  c0,7.3-0.9,9.5-1.7,10.6c-1.2,1.9-3,3.2-5.3,3.8h23.4c-1.9-0.6-3.4-1.5-4.6-2.9c-1.5-1.7-2.2-5.3-2.2-11.5v-27.7l1.6,0.1  c0.7,0,1.4,0.1,2,0.1c0.6,0,1.2,0,1.8,0c1.4,0,3.2,0,5.4-0.1l0.8,0l30.5,42.1h19.5c-3.5-0.7-6.6-1.8-9-3.4  C2029.9,2067,2026.2,2063,2021.8,2056.9z M1985.7,2029.3c-0.4,0-0.9,0-1.6,0c-0.6,0-1.3,0-2.1,0h-1.5v-40.1l1.2-0.2  c4.5-0.9,8.1-1.3,10.7-1.3c6.2,0,11.2,1.9,15,5.7c3.8,3.8,5.7,8.8,5.7,14.8c0,6.2-2.4,11.3-7.1,15.3  C2001.5,2027.3,1994.6,2029.3,1985.7,2029.3z"></path>	<path class="st0" d="M2095.8,2070.6h-15.3c-2.8,0-4.6-0.3-5.8-1c-1.2-0.7-2-1.6-2.5-2.8c-0.3-0.7-0.6-2.3-0.6-7.8v-31.1h21.3  c4,0,7,0.5,9,1.5c2.1,1,3.6,2.5,4.6,4.3c0.4,0.7,0.9,2,1.5,5.5v-23.2c-0.7,3.3-2,5.8-3.8,7.4c-2,1.8-5.7,2.7-11.3,2.7h-21.3v-38.6  h26.2c4.7,0,7.9,0.4,9.9,1.1c2.5,1.1,4.5,2.6,5.7,4.6c1,1.6,1.9,4.2,2.8,7.8l-0.8-15.4h-60.1c1.9,0.5,3.4,1.4,4.5,2.6  c0.9,1.1,2.1,3.4,2.1,11.5v58.4c0,4.6-0.3,7.6-0.9,9.2c-0.6,1.8-1.9,3.1-3.6,4c-0.9,0.5-1.8,0.9-2.8,1.1h61.2l6.1-17.8  c-2.5,4.4-4.9,7.8-7.3,10.2c-2.3,2.2-4.7,3.8-7.3,4.6C2104.8,2070.2,2101.1,2070.6,2095.8,2070.6z"></path>	<path class="st0" d="M2206.8,1999.6v56.1l-57.2-70.2h-17.8c0.1,0,0.3,0.1,0.4,0.1c2.8,0.9,4.9,1.9,6.4,2.9c1.5,1.1,3.5,3.1,6.2,6.3  l0.4,0.4v63.1c0,5.5-0.5,8.8-1.7,10.5c-1.2,1.7-2.9,2.9-5.1,3.6h16.4c-1.9-0.5-3.4-1.4-4.6-2.7c-1.5-1.7-2.2-5.3-2.2-11.4v-59.6  l61.5,75.1h0.2v-74.3c0-5.5,0.5-8.8,1.7-10.5c1.2-1.7,2.9-2.9,5.1-3.6H2200c1.9,0.5,3.4,1.4,4.5,2.7  C2206.1,1990,2206.8,1993.6,2206.8,1999.6z"></path>	<path class="st0" d="M2303.7,2001l-0.7-15.4h-70.6l-0.7,14.8c0.5-2.2,1.4-4.2,2.5-5.8c1.8-2.6,4-4.5,6.6-5.4c2-0.7,5.1-1,9.5-1  h12.3v70.2c0,5.5-0.5,8.8-1.7,10.5c-1.2,1.7-2.9,2.9-5.1,3.6h23.3c-1.9-0.5-3.4-1.4-4.6-2.7c-1.5-1.7-2.2-5.3-2.2-11.4v-70.2h14.2  c3.9,0,7.2,0.7,9.7,2c2.5,1.4,4.6,3.5,6.1,6.3C2302.8,1997.6,2303.3,1999.1,2303.7,2001z"></path>	<path class="st0" d="M2377.6,2057.4l-30.9-73.9h-0.3l-31.3,73.1c-2.8,6.8-5.4,11.1-7.8,13.4c-1,1-2.8,1.8-5.5,2.4h20.9  c-2.2-0.4-3.8-1-4.8-1.8c-1.7-1.3-2.5-2.9-2.5-4.8c0-1.9,0.8-4.7,2.4-8.4l6.5-15.1h36.8l5.8,13.9c1.9,4.4,2.8,7.6,2.8,9.8  c0,1.9-0.8,3.6-2.4,4.9c-0.9,0.7-2.1,1.2-3.7,1.6h27.1c-2.3-0.6-4.2-1.5-5.7-2.8C2382.6,2067.7,2380.2,2063.7,2377.6,2057.4z   M2325,2040.5l18-41.7l17.5,41.7H2325z"></path>	<path class="st0" d="M2444.8,2069.8h-6.6c-8,0-10-0.4-10.9-0.8c-1.4-0.6-2.5-1.5-3.2-2.7c-0.9-1.7-1.3-4.4-1.3-8.3v-56.5  c0-7.5,0.7-9.8,1.2-10.8c0.9-1.7,2.4-3.1,4.6-4.2c0.8-0.4,1.8-0.7,3-0.9h-25.4c1.9,0.5,3.4,1.5,4.7,2.9c1.5,1.7,2.2,5.4,2.2,11.5  v58c0,7.3-0.9,9.6-1.6,10.6c-1.2,1.9-3,3.2-5.3,3.8h61l5.4-17.1c-1.5,2.9-3,5.3-4.6,7c-2.5,2.8-5.2,4.7-8.2,5.8  C2456.9,2069.3,2451.9,2069.8,2444.8,2069.8z"></path></g><g>	<g>		<g>			<polygon class="st3" points="924.8,2589.6 950.3,2589.6 984.2,2639.5 1009.6,2639.5 960.7,2566.2 885.9,2566.2 960.7,2681     1068,2683.4 1082,2705.9 950.8,2705.9 842.5,2545.2 973.2,2544.7 1053,2660.5 974.7,2662.5    "></polygon>		</g>		<g>			<polygon class="st3" points="1065.5,2523.3 1051.6,2540.2 1113.9,2637.5 1154.8,2577.7 1062.5,2447.9 999.2,2543.2     1108.4,2704.4 1121.4,2683.9 1024.1,2542.2 1064,2484.9 1129.9,2580.2 1114.4,2597.6    "></polygon>		</g>		<g>			<polygon class="st3" points="1227.2,2588.1 1253.6,2589.1 1204.7,2660 1127.4,2661.5 1206.2,2543.7 1335.5,2546.2 1225.7,2708.4     1110.4,2707.4 1108.4,2704.4 1121.4,2683.9 1213.7,2683.9 1292.6,2566.2 1215.2,2566.7 1168.3,2639 1195.8,2639.5    "></polygon>		</g>		<g>			<polygon class="st3" points="1168.3,2559.7 1077,2426 1089.5,2406.5 1181.3,2540.7    "></polygon>		</g>		<g>			<polygon class="st3" points="1211.4,2724.7 1197.9,2749.1 980.1,2749.1 967.3,2726.2    "></polygon>		</g>	</g>	<g>		<g>			<g>				<rect x="1388.9" y="2475" class="st3" width="502.1" height="4.7"></rect>			</g>		</g>		<g>			<g>				<rect x="2035.3" y="2475" class="st3" width="502.1" height="4.7"></rect>			</g>		</g>	</g>	<g>		<g>			<g>				<rect x="1412.1" y="2712.9" class="st3" width="298.9" height="6"></rect>			</g>		</g>		<g>			<g>				<rect x="2177" y="2712.9" class="st3" width="335.3" height="6"></rect>			</g>		</g>	</g>	<path class="st3" d="M1813.1,2755.9c-6.2,0-11.8-1.5-16.6-4.4c-4.9-3-8.6-7.3-11-12.8c-2.4-5.4-3.6-11.9-3.6-19.3  c0-8.9,1.3-16.4,3.8-22.4c2.5-6.1,6.1-10.6,10.6-13.5c4.5-2.8,9.5-4.2,15.1-4.2c6.6,0,12.3,1.9,17.1,5.6c3.9,3.1,7,7.7,9.4,13.9  l-1.3-19.7c-0.5,1.1-1.1,2-1.8,2.8c-1.1,1.1-2.4,1.6-3.8,1.6c-1,0-2.3-0.4-4.2-1.5c-5.3-2.7-10.8-4-16.3-4  c-7.1,0-13.7,1.8-19.6,5.3c-5.9,3.5-10.7,8.5-14.1,14.8c-3.4,6.4-5.1,13.5-5.1,21.1c0,9.4,2.6,17.8,7.8,24.7  c6.9,9.3,16.7,14,29.3,14c7,0,13.1-1.6,18.1-4.7c2.6-1.6,5-3.7,7.3-6.2c-2.3,2.3-4.5,4.1-6.6,5.3  C1823.3,2754.7,1818.5,2755.9,1813.1,2755.9z"></path>	<path class="st3" d="M1915.8,2743.2l-27.2-65h-0.1l-27.5,64.3c-2.5,6-4.8,9.9-7,11.9c-0.8,0.7-2,1.3-3.6,1.9h15.5  c-1.2-0.3-2.1-0.8-2.7-1.3c-1.9-1.5-2.3-3.2-2.3-4.4c0-1.7,0.7-4.2,2.1-7.5l5.8-13.4h32.7l5.2,12.3c1.7,3.9,2.5,6.8,2.5,8.7  c0,1.7-0.8,3.3-2.2,4.4c-0.5,0.4-1.2,0.8-2.1,1.1h21.4c-1.5-0.5-2.8-1.2-3.9-2.2C1920.2,2752.3,1918.1,2748.7,1915.8,2743.2z   M1869.3,2728.4l16.1-37.4l15.7,37.4H1869.3z"></path>	<path class="st3" d="M1987.1,2718.7l-5.5-1.2l5.4-1.7c4.4-1.4,7.8-3.6,10-6.5c2.2-2.9,3.3-6.1,3.3-9.8c0-4.3-1.4-8-4.3-11.3  c-2.9-3.3-7.1-5.7-12.6-7c-3.7-0.9-8.8-1.4-15-1.4h-26.6c1.3,0.5,2.3,1.3,3.2,2.2c1.4,1.6,2.1,4.9,2.1,10.3v51.2  c0,4.9-0.5,7.9-1.6,9.5c-0.9,1.4-2.2,2.4-3.7,3h29.8c8.7,0,15.2-0.8,19.4-2.4c4-1.5,7.3-4,9.6-7.3c2.3-3.3,3.5-6.9,3.5-10.5  c0-4.8-1.7-8.7-5.2-12.1C1996.3,2721.6,1992.3,2719.8,1987.1,2718.7z M1955.3,2682.5l1.1-0.3c3.2-0.9,6.9-1.3,10.9-1.3  c7.6,0,13.5,1.8,17.5,5.3c4.1,3.6,6.2,7.9,6.2,13c0,3.3-0.8,6.3-2.5,9.1c-1.7,2.8-4.1,4.9-7.3,6.2c-3.1,1.3-7.5,2-13.4,2  c-2.3,0-4.4-0.1-6.2-0.2c-1.9-0.1-3.6-0.4-5.1-0.6l-1.2-0.2V2682.5z M1987.3,2750c-4,3.4-9.7,5.1-17.1,5.1c-4.5,0-9.1-0.5-13.7-1.6  l-1.2-0.3v-34.9l1.2-0.2c1.1-0.2,2.5-0.4,4.4-0.4c1.7-0.1,3.8-0.1,6.3-0.1c5.8,0,10.7,0.9,14.6,2.6c4.1,1.8,7,4.2,8.9,7.3  c1.8,3.1,2.7,6.3,2.7,9.6C1993.4,2742.1,1991.4,2746.5,1987.3,2750z"></path>	<path class="st3" d="M2081.5,2689.4c-7.2-7.5-15.9-11.3-25.7-11.3c-9.9,0-18.6,3.3-25.7,10c-8.2,7.6-12.4,17.6-12.4,29.7  c0,11.9,3.6,21.6,10.7,29.1c7.1,7.4,16,11.2,26.4,11.2c10.3,0,19.2-3.9,26.5-11.5c7.3-7.6,11-17.4,11-29  C2092.4,2706.4,2088.7,2696.9,2081.5,2689.4z M2074.4,2747.6c-5.1,6.1-11.7,9.3-19.6,9.3c-7.4,0-13.5-2.9-18-8.5  c-5.7-7.2-8.6-17.6-8.6-30.8c0-12.9,2.8-22.9,8.3-29.7c4.6-5.6,10.7-8.4,18.2-8.4c8,0,14.4,2.9,18.9,8.5c5.5,6.9,8.3,17.4,8.3,31.3  C2082,2732,2079.4,2741.6,2074.4,2747.6z"></path>	<path class="st3" d="M1415.5,2613h-6.6c-8,0-10-0.4-10.9-0.8c-1.4-0.6-2.5-1.5-3.2-2.7c-0.9-1.7-1.3-4.4-1.3-8.3v-56.5  c0-7.5,0.7-9.8,1.2-10.8c0.9-1.7,2.4-3.1,4.6-4.2c0.8-0.4,1.8-0.7,3-0.9h-25.5c1.9,0.5,3.4,1.5,4.7,2.9c1.5,1.7,2.2,5.4,2.2,11.5  v58c0,7.3-0.9,9.6-1.6,10.6c-1.2,1.9-3,3.2-5.3,3.8h61l5.4-17.2c-1.5,3-3.1,5.3-4.6,7c-2.5,2.8-5.2,4.7-8.2,5.8  C1427.6,2612.5,1422.6,2613,1415.5,2613z"></path>	<path class="st3" d="M1528.9,2543.2v36.4c0,9.8-0.9,16.7-2.7,20.9c-1.8,4.3-5.2,7.9-10.2,10.6c-4.8,2.7-10.4,4-16.5,4  c-4.8,0-9-0.9-12.3-2.6c-3.4-1.7-6-4-7.8-6.7c-1.8-2.7-3-6.5-3.7-11.2c-0.6-4.6-1-8.7-1-12.2v-39.2c0-5.5,0.6-8.9,1.9-10.8  c1.2-1.8,2.9-3,5.1-3.6h-23.6c1.7,0.5,3.2,1.4,4.2,2.5c1.8,2,2.7,5.9,2.7,11.9v35.2c0,10.6,0.7,17.9,2,21.6c2,5.4,5.4,9.8,10.2,13  c4.8,3.2,12,4.9,21.5,4.9c8.7,0,15.6-1.7,20.5-5.1c4.9-3.4,8.3-7.4,10-12.1c1.7-4.8,2.6-11.7,2.6-20.5v-36.5  c0-5.4,0.5-8.7,1.7-10.4c1.5-2.3,3.4-3.8,5.7-4.6H1522c1.9,0.5,3.4,1.5,4.7,2.9C1528.2,2533.4,1528.9,2537,1528.9,2543.2z"></path>	<path class="st3" d="M1621.3,2597l-19.9-29.7l18.5-23.7c3.7-4.8,6.5-8,8.6-9.8c2.1-1.8,4.4-3.3,7-4.4c0.7-0.3,1.6-0.6,2.5-0.8  h-21.4c0.2,0.1,0.4,0.1,0.6,0.2c1.3,0.5,2.4,1.3,3.2,2.5c0.7,0.9,1.1,2.1,1.1,3.3c0,1.1-0.3,2.3-0.8,3.4c-0.5,1-1.6,2.7-3.6,5.2  l-17.3,21.9l-14.9-22.3c-2.3-3.4-3.4-6-3.4-8c0-1.7,0.9-3.3,2.5-4.6c0.8-0.7,2-1.2,3.5-1.5h-32.2c2.8,0.6,5.4,1.7,7.7,3.2  c3.6,2.3,7.7,7,12.7,14.2l18.3,26.8l-21.9,27.7c-3.2,4.1-6.2,7.2-8.7,9.2c-2.6,2-5.3,3.7-8.2,4.8c-0.9,0.4-1.9,0.7-3,1h23.9  c-1.4-0.3-2.4-0.8-3.2-1.4c-1.6-1.2-2.4-2.8-2.4-4.7c0-1.1,0.2-2.3,0.7-3.3c0.3-0.6,1-1.9,3.8-5.4l20.1-25.8l16.4,24.8  c2.9,4.3,3.6,5.5,3.8,6.1c0.5,1.2,0.7,2.4,0.7,3.6c0,1.2-0.4,2.3-1.2,3.4c-0.8,1-1.7,1.8-2.9,2.3c-0.4,0.1-0.7,0.3-1.2,0.4h29.5  c-2.6-0.6-4.9-1.7-6.8-3.3C1630.7,2610.2,1626.8,2605.2,1621.3,2597z"></path>	<path class="st3" d="M1725.1,2543.2v36.4c0,9.8-0.9,16.7-2.7,20.9c-1.8,4.3-5.3,7.9-10.2,10.6c-4.8,2.7-10.4,4-16.5,4  c-4.8,0-9-0.9-12.3-2.6c-3.4-1.7-6-4-7.8-6.7c-1.8-2.7-3-6.5-3.7-11.2c-0.6-4.6-1-8.7-1-12.2v-39.2c0-5.5,0.6-8.9,1.9-10.8  c1.2-1.8,2.9-3,5.1-3.6h-23.6c1.7,0.5,3.2,1.4,4.2,2.5c1.8,2,2.7,5.9,2.7,11.9v35.2c0,10.6,0.7,17.9,2,21.6c2,5.4,5.4,9.8,10.2,13  c4.8,3.2,12.1,4.9,21.5,4.9c8.7,0,15.6-1.7,20.5-5.1c4.9-3.4,8.3-7.4,10-12.1c1.7-4.8,2.6-11.7,2.6-20.5v-36.5  c0-5.4,0.5-8.7,1.7-10.4c1.5-2.3,3.4-3.8,5.7-4.6h-17.2c1.9,0.5,3.4,1.5,4.7,2.9C1724.4,2533.4,1725.1,2537,1725.1,2543.2z"></path>	<path class="st3" d="M1811.7,2600.1l-19.9-27.6l2.2-0.5c7.2-1.6,12.6-4.3,16-8.2c3.4-3.8,5-8.2,5-13.4c0-4.9-1.4-8.9-4.4-12.4  c-3-3.5-6.6-5.9-10.8-7.2c-4.4-1.3-11.3-2-20.7-2h-25.2c1.9,0.5,3.4,1.5,4.7,2.9c1.5,1.7,2.2,5.4,2.2,11.5v58.1  c0,7.3-0.9,9.5-1.7,10.6c-1.2,1.9-3,3.2-5.3,3.8h23.4c-1.9-0.6-3.4-1.5-4.6-2.9c-1.5-1.7-2.2-5.3-2.2-11.5v-27.7l1.6,0.1  c0.7,0,1.4,0.1,2,0.1c0.6,0,1.2,0,1.8,0c1.4,0,3.2,0,5.4-0.1l0.8,0l30.5,42.1h19.5c-3.5-0.7-6.6-1.8-9-3.4  C1819.8,2610.2,1816.1,2606.2,1811.7,2600.1z M1775.6,2572.5c-0.4,0-0.9,0-1.6,0c-0.6,0-1.3,0-2.1,0h-1.5v-40.1l1.2-0.2  c4.5-0.9,8.1-1.3,10.7-1.3c6.2,0,11.2,1.9,15,5.7c3.8,3.8,5.7,8.8,5.7,14.8c0,6.2-2.4,11.3-7.1,15.3  C1791.4,2570.5,1784.5,2572.5,1775.6,2572.5z"></path>	<path class="st3" d="M1901.2,2532c0.8,1.2,1.2,2.6,1.2,4.1c0,2.3-1.4,5.7-4.2,10.1l-18.9,29.7l-20-30.9c-3.8-5.9-4.3-8.2-4.3-9.4  c0-2.5,1.2-4.5,3.4-5.7c0.8-0.5,1.7-0.8,2.6-1.1h-28.8c0.2,0.1,0.4,0.2,0.6,0.3c3.4,1.6,5.7,3,6.9,4.3c1.1,1.2,3.1,4,6.1,8.5  l24.9,38.1v21.7c0,5.5-0.5,8.8-1.7,10.5c-1.2,1.7-2.9,2.9-5.1,3.6h23.4c-1.9-0.5-3.5-1.4-4.6-2.7c-1.5-1.7-2.2-5.3-2.2-11.4v-23  l21.9-34.5c2.7-4.4,5-7.5,6.9-9.5c1.9-2,4.1-3.6,6.5-4.7c1-0.5,2-0.8,2.8-1.1h-21.9c0.4,0.1,0.8,0.3,1.1,0.4  C1899.3,2529.8,1900.4,2530.8,1901.2,2532z"></path>	<path class="st3" d="M2021.8,2600.1l-19.9-27.6l2.2-0.5c7.2-1.6,12.6-4.3,16-8.2c3.4-3.8,5-8.2,5-13.4c0-4.9-1.4-8.9-4.4-12.4  c-3-3.5-6.6-5.9-10.8-7.2c-4.4-1.3-11.3-2-20.7-2H1964c1.9,0.5,3.4,1.5,4.7,2.9c1.5,1.7,2.2,5.4,2.2,11.5v58.1  c0,7.3-0.9,9.5-1.7,10.6c-1.2,1.9-3,3.2-5.3,3.8h23.4c-1.9-0.6-3.4-1.5-4.6-2.9c-1.5-1.7-2.2-5.3-2.2-11.5v-27.7l1.6,0.1  c0.7,0,1.4,0.1,2,0.1c0.6,0,1.2,0,1.8,0c1.4,0,3.2,0,5.4-0.1l0.8,0l30.5,42.1h19.5c-3.5-0.7-6.6-1.8-9-3.4  C2029.9,2610.2,2026.2,2606.2,2021.8,2600.1z M1985.7,2572.5c-0.4,0-0.9,0-1.6,0c-0.6,0-1.3,0-2.1,0h-1.5v-40.1l1.2-0.2  c4.5-0.9,8.1-1.3,10.7-1.3c6.2,0,11.2,1.9,15,5.7c3.8,3.8,5.7,8.8,5.7,14.8c0,6.2-2.4,11.3-7.1,15.3  C2001.5,2570.5,1994.6,2572.5,1985.7,2572.5z"></path>	<path class="st3" d="M2095.8,2613.8h-15.3c-2.8,0-4.6-0.3-5.8-1c-1.2-0.7-2-1.6-2.5-2.8c-0.3-0.7-0.6-2.3-0.6-7.8v-31.1h21.3  c4,0,7,0.5,9,1.5c2.1,1,3.6,2.5,4.6,4.3c0.4,0.7,0.9,2,1.5,5.5v-23.2c-0.7,3.3-2,5.8-3.8,7.4c-2,1.8-5.7,2.7-11.3,2.7h-21.3v-38.6  h26.2c4.7,0,7.9,0.4,9.9,1.1c2.5,1.1,4.5,2.6,5.7,4.6c1,1.6,1.9,4.2,2.8,7.8l-0.8-15.4h-60.1c1.9,0.5,3.4,1.4,4.5,2.6  c0.9,1.1,2.1,3.4,2.1,11.5v58.4c0,4.6-0.3,7.6-0.9,9.2c-0.6,1.8-1.9,3.1-3.6,4c-0.9,0.5-1.8,0.9-2.8,1.1h61.2l6.1-17.8  c-2.5,4.4-4.9,7.8-7.3,10.2c-2.3,2.2-4.7,3.8-7.3,4.6C2104.8,2613.4,2101.1,2613.8,2095.8,2613.8z"></path>	<path class="st3" d="M2206.8,2542.8v56.1l-57.2-70.2h-17.8c0.1,0,0.3,0.1,0.4,0.1c2.8,0.9,4.9,1.9,6.4,2.9c1.5,1.1,3.5,3.1,6.2,6.3  l0.4,0.4v63.1c0,5.5-0.5,8.8-1.7,10.5c-1.2,1.7-2.9,2.9-5.1,3.6h16.4c-1.9-0.5-3.4-1.4-4.6-2.7c-1.5-1.7-2.2-5.3-2.2-11.4V2542  l61.5,75.1h0.2v-74.3c0-5.5,0.5-8.8,1.7-10.5c1.2-1.7,2.9-2.9,5.1-3.6H2200c1.9,0.5,3.4,1.4,4.5,2.7  C2206.1,2533.2,2206.8,2536.8,2206.8,2542.8z"></path>	<path class="st3" d="M2303.7,2544.2l-0.7-15.4h-70.6l-0.7,14.8c0.5-2.2,1.4-4.2,2.5-5.8c1.8-2.6,4-4.5,6.6-5.4c2-0.7,5.1-1,9.5-1  h12.3v70.2c0,5.5-0.5,8.8-1.7,10.5c-1.2,1.7-2.9,2.9-5.1,3.6h23.3c-1.9-0.5-3.4-1.4-4.6-2.7c-1.5-1.7-2.2-5.3-2.2-11.4v-70.2h14.2  c3.9,0,7.2,0.7,9.7,2c2.5,1.4,4.6,3.5,6.1,6.3C2302.8,2540.8,2303.3,2542.3,2303.7,2544.2z"></path>	<path class="st3" d="M2377.6,2600.6l-30.9-73.9h-0.3l-31.3,73.1c-2.8,6.8-5.4,11.1-7.8,13.4c-1,1-2.8,1.8-5.5,2.4h20.9  c-2.2-0.4-3.8-1-4.8-1.8c-1.7-1.3-2.5-2.9-2.5-4.8c0-1.9,0.8-4.7,2.4-8.4l6.5-15.1h36.8l5.8,13.9c1.9,4.4,2.8,7.6,2.8,9.8  c0,1.9-0.8,3.6-2.4,4.9c-0.9,0.7-2.1,1.2-3.7,1.6h27.1c-2.3-0.6-4.2-1.5-5.7-2.8C2382.6,2610.9,2380.2,2606.9,2377.6,2600.6z   M2325,2583.7l18-41.7l17.5,41.7H2325z"></path>	<path class="st3" d="M2444.8,2613h-6.6c-8,0-10-0.4-10.9-0.8c-1.4-0.6-2.5-1.5-3.2-2.7c-0.9-1.7-1.3-4.4-1.3-8.3v-56.5  c0-7.5,0.7-9.8,1.2-10.8c0.9-1.7,2.4-3.1,4.6-4.2c0.8-0.4,1.8-0.7,3-0.9h-25.4c1.9,0.5,3.4,1.5,4.7,2.9c1.5,1.7,2.2,5.4,2.2,11.5  v58c0,7.3-0.9,9.6-1.6,10.6c-1.2,1.9-3,3.2-5.3,3.8h61l5.4-17.1c-1.5,2.9-3,5.3-4.6,7c-2.5,2.8-5.2,4.7-8.2,5.8  C2456.9,2612.5,2451.9,2613,2444.8,2613z"></path>	<path class="st3" d="M2543.4,2584.6c-1.6-3.1-3.8-5.8-6.7-8c-3-2.3-8.7-5.8-17-10.2c-10.6-5.7-17.1-10.1-20-13.6  c-2.1-2.5-3.2-5.4-3.2-8.5c0-4,1.7-7.6,5-10.7c3.3-3.1,7.5-4.6,12.4-4.6c4.3,0,8.5,1.1,12.5,3.3c4,2.2,7.2,5.2,9.4,9  c1.7,3,3.1,6.9,3.9,11.5v-25.3c-0.4,1.4-1,2.3-1.7,3c-1,1-2.3,1.4-3.8,1.4c-1.3,0-3.1-0.6-5.9-1.8c-5.1-2.2-10-3.4-14.6-3.4  c-7.2,0-13.2,2.2-17.9,6.6c-4.7,4.4-7,9.5-7,15.6c0,3.4,0.8,6.6,2.3,9.5c1.6,2.9,3.9,5.6,7,8c3.2,2.5,8.6,5.9,16.2,10.2  c7.8,4.4,12.5,7.2,14.3,8.6c2.7,2.1,4.8,4.3,6.1,6.8c1.3,2.5,2,5,2,7.4c0,4.4-1.8,8.3-5.3,11.5c-3.5,3.2-8.2,4.8-14.1,4.8  c-5,0-9.7-1.1-13.9-3.4c-4.2-2.2-7.4-5.1-9.5-8.5c-1.8-2.9-3.2-7-4.3-12.3v25.2c0.3-1.1,0.8-1.9,1.3-2.5c0.9-1,2.2-1.5,3.7-1.5  c0.8,0,2.7,0.2,8.7,2.2c4.2,1.4,7,2.2,8.3,2.4c2.2,0.4,4.6,0.6,7.1,0.6c7.9,0,14.4-2.4,19.4-7c5-4.7,7.5-10.1,7.5-16.5  C2545.7,2590.9,2544.9,2587.7,2543.4,2584.6z"></path></g><g>			<text transform="matrix(1 0 0 1 2728.2949 4861.5425)" class="st3" style="font-family:'Lato-Light'; font-size:57.4519px; letter-spacing:12;">WEDDINGS</text></g><g>	<g>		<polygon class="st3" points="-1362.9,4137.4 -1337.4,4137.4 -1303.5,4187.3 -1278,4187.3 -1326.9,4113.9 -1401.8,4113.9    -1326.9,4228.7 -1219.7,4231.2 -1205.7,4253.7 -1336.9,4253.7 -1445.2,4093 -1314.5,4092.5 -1234.6,4208.3 -1313,4210.3   "></polygon>	</g>	<g>		<polygon class="st3" points="-1222.1,4071 -1236.1,4088 -1173.7,4185.3 -1132.8,4125.4 -1225.1,3995.7 -1288.5,4091    -1179.2,4252.2 -1166.3,4231.7 -1263.6,4090 -1223.6,4032.6 -1157.8,4127.9 -1173.2,4145.4   "></polygon>	</g>	<g>		<polygon class="st3" points="-1060.5,4135.9 -1034,4136.9 -1082.9,4207.8 -1160.3,4209.3 -1081.4,4091.5 -952.2,4094    -1062,4256.2 -1177.2,4255.2 -1179.2,4252.2 -1166.3,4231.7 -1073.9,4231.7 -995.1,4113.9 -1072.5,4114.4 -1119.4,4186.8    -1091.9,4187.3   "></polygon>	</g>	<g>		<polygon class="st3" points="-1119.4,4107.5 -1210.7,3973.7 -1198.2,3954.3 -1106.4,4088.5   "></polygon>	</g>	<g>		<polygon class="st3" points="-1076.3,4272.5 -1089.8,4296.8 -1307.6,4296.8 -1320.3,4274   "></polygon>	</g></g><g>	<g>		<g>			<g>				<g>					<rect x="-864.7" y="4658.5" class="st3" width="502.1" height="2.6"></rect>				</g>			</g>			<g>				<g>					<rect x="-218.3" y="4658.5" class="st3" width="502.1" height="2.7"></rect>				</g>			</g>		</g>		<g>			<g>				<g>					<rect x="-841.6" y="4883.6" class="st3" width="298.9" height="3"></rect>				</g>				<g>					<rect x="-76.7" y="4883.6" class="st3" width="335.3" height="3"></rect>				</g>			</g>		</g>	</g></g><g>			<text transform="matrix(1 0 0 1 -508.0362 4929.5581)" class="st3" style="font-family:'QTAvanti'; font-size:110px; letter-spacing:24;">CABO</text></g><g>			<text transform="matrix(1 0 0 1 -887.2891 4789.021)" class="st3" style="font-family:'QTAvanti'; font-size:110px; letter-spacing:24;">LUXURY RENTALS</text></g><g>	<g>		<polygon class="st3" points="-1362.9,4761.5 -1337.4,4761.5 -1303.5,4811.4 -1278,4811.4 -1326.9,4738 -1401.8,4738    -1326.9,4852.8 -1219.7,4855.3 -1205.7,4877.7 -1336.9,4877.7 -1445.2,4717.1 -1314.5,4716.6 -1234.6,4832.3 -1313,4834.3   "></polygon>	</g>	<g>		<polygon class="st3" points="-1222.1,4695.1 -1236.1,4712.1 -1173.7,4809.4 -1132.8,4749.5 -1225.1,4619.8 -1288.5,4715.1    -1179.2,4876.2 -1166.3,4855.8 -1263.6,4714.1 -1223.6,4656.7 -1157.8,4752 -1173.2,4769.4   "></polygon>	</g>	<g>		<polygon class="st3" points="-1060.5,4760 -1034,4761 -1082.9,4831.8 -1160.3,4833.3 -1081.4,4715.6 -952.2,4718.1 -1062,4880.2    -1177.2,4879.2 -1179.2,4876.2 -1166.3,4855.8 -1073.9,4855.8 -995.1,4738 -1072.5,4738.5 -1119.4,4810.9 -1091.9,4811.4   "></polygon>	</g>	<g>		<polygon class="st3" points="-1119.4,4731.5 -1210.7,4597.8 -1198.2,4578.3 -1106.4,4712.6   "></polygon>	</g>	<g>		<polygon class="st3" points="-1076.3,4896.6 -1089.8,4920.9 -1307.6,4920.9 -1320.3,4898.1   "></polygon>	</g></g><g>	<g>		<g>			<g>				<g>					<rect x="-864.7" y="5282.6" class="st3" width="502.1" height="2.6"></rect>				</g>			</g>			<g>				<g>					<rect x="-218.3" y="5282.6" class="st3" width="502.1" height="2.7"></rect>				</g>			</g>		</g>		<g>			<g>				<g>					<rect x="-841.6" y="5507.7" class="st3" width="298.9" height="3"></rect>				</g>				<g>					<rect x="-76.7" y="5507.7" class="st3" width="335.3" height="3"></rect>				</g>			</g>		</g>	</g></g><g>			<text transform="matrix(1 0 0 1 -511.083 5553.6206)" class="st3" style="font-family:'Lato-Light'; font-size:110px; letter-spacing:24;">CABO</text></g><g>			<text transform="matrix(1 0 0 1 -903.7056 5413.0835)" class="st3" style="font-family:'Lato-Light'; font-size:110px; letter-spacing:24;">LUXURY RENTALS</text></g><g>	<g>		<polygon class="st3" points="-1362.9,5385.5 -1337.4,5385.5 -1303.5,5435.4 -1278,5435.4 -1326.9,5362.1 -1401.8,5362.1    -1326.9,5476.8 -1219.7,5479.3 -1205.7,5501.8 -1336.9,5501.8 -1445.2,5341.1 -1314.5,5340.6 -1234.6,5456.4 -1313,5458.4   "></polygon>	</g>	<g>		<polygon class="st3" points="-1222.1,5319.2 -1236.1,5336.1 -1173.7,5433.4 -1132.8,5373.5 -1225.1,5243.8 -1288.5,5339.1    -1179.2,5500.3 -1166.3,5479.8 -1263.6,5338.1 -1223.6,5280.7 -1157.8,5376 -1173.2,5393.5   "></polygon>	</g>	<g>		<polygon class="st3" points="-1060.5,5384 -1034,5385 -1082.9,5455.9 -1160.3,5457.4 -1081.4,5339.6 -952.2,5342.1 -1062,5504.3    -1177.2,5503.3 -1179.2,5500.3 -1166.3,5479.8 -1073.9,5479.8 -995.1,5362.1 -1072.5,5362.6 -1119.4,5434.9 -1091.9,5435.4   "></polygon>	</g>	<g>		<polygon class="st3" points="-1119.4,5355.6 -1210.7,5221.9 -1198.2,5202.4 -1106.4,5336.6   "></polygon>	</g>	<g>		<polygon class="st3" points="-1076.3,5520.6 -1089.8,5544.9 -1307.6,5544.9 -1320.3,5522.1   "></polygon>	</g></g><g>	<g>		<g>			<g>				<g>					<rect x="-864.7" y="5798.6" class="st3" width="502.1" height="2.6"></rect>				</g>			</g>			<g>				<g>					<rect x="-218.3" y="5798.6" class="st3" width="502.1" height="2.7"></rect>				</g>			</g>		</g>		<g>			<g>				<g>					<rect x="-841.6" y="6023.7" class="st3" width="298.9" height="3"></rect>				</g>				<g>					<rect x="-76.7" y="6023.7" class="st3" width="335.3" height="3"></rect>				</g>			</g>		</g>	</g></g><g>			<text transform="matrix(1 0 0 1 -440.043 6069.6206)" class="st3" style="font-family:'AlienLeague'; font-size:120px; letter-spacing:26;">CABO</text></g><g>			<text transform="matrix(1 0 0 1 -883.3896 5929.0835)" class="st3" style="font-family:'AlienLeague'; font-size:110px; letter-spacing:37;">LUXURY RENTALS</text></g><g>	<g>		<polygon class="st3" points="-1362.9,5901.5 -1337.4,5901.5 -1303.5,5951.4 -1278,5951.4 -1326.9,5878.1 -1401.8,5878.1    -1326.9,5992.8 -1219.7,5995.3 -1205.7,6017.8 -1336.9,6017.8 -1445.2,5857.1 -1314.5,5856.6 -1234.6,5972.4 -1313,5974.4   "></polygon>	</g>	<g>		<polygon class="st3" points="-1222.1,5835.2 -1236.1,5852.1 -1173.7,5949.4 -1132.8,5889.5 -1225.1,5759.8 -1288.5,5855.1    -1179.2,6016.3 -1166.3,5995.8 -1263.6,5854.1 -1223.6,5796.7 -1157.8,5892 -1173.2,5909.5   "></polygon>	</g>	<g>		<polygon class="st3" points="-1060.5,5900 -1034,5901 -1082.9,5971.9 -1160.3,5973.4 -1081.4,5855.6 -952.2,5858.1 -1062,6020.3    -1177.2,6019.3 -1179.2,6016.3 -1166.3,5995.8 -1073.9,5995.8 -995.1,5878.1 -1072.5,5878.6 -1119.4,5950.9 -1091.9,5951.4   "></polygon>	</g>	<g>		<polygon class="st3" points="-1119.4,5871.6 -1210.7,5737.9 -1198.2,5718.4 -1106.4,5852.6   "></polygon>	</g>	<g>		<polygon class="st3" points="-1076.3,6036.6 -1089.8,6060.9 -1307.6,6060.9 -1320.3,6038.1   "></polygon>	</g></g><g>	<g>		<g>			<g>				<g>					<rect x="-864.7" y="6338.6" class="st3" width="502.1" height="2.6"></rect>				</g>			</g>			<g>				<g>					<rect x="-218.3" y="6338.6" class="st3" width="502.1" height="2.7"></rect>				</g>			</g>		</g>		<g>			<g>				<g>					<rect x="-841.6" y="6563.7" class="st3" width="298.9" height="3"></rect>				</g>				<g>					<rect x="-76.7" y="6563.7" class="st3" width="335.3" height="3"></rect>				</g>			</g>		</g>	</g></g><g>			<text transform="matrix(1 0 0 1 -492.1211 6609.6206)" class="st3" style="font-family:'LetterGothic'; font-size:102px; letter-spacing:34;">CABO</text></g><g>			<text transform="matrix(1 0 0 1 -895.3789 6469.0835)" class="st3" style="font-family:'LetterGothic'; font-size:102px; letter-spacing:34;">LUXURY RENTALS</text></g><g>	<g>		<polygon class="st3" points="-1362.9,6441.5 -1337.4,6441.5 -1303.5,6491.4 -1278,6491.4 -1326.9,6418.1 -1401.8,6418.1    -1326.9,6532.8 -1219.7,6535.3 -1205.7,6557.8 -1336.9,6557.8 -1445.2,6397.1 -1314.5,6396.6 -1234.6,6512.4 -1313,6514.4   "></polygon>	</g>	<g>		<polygon class="st3" points="-1222.1,6375.2 -1236.1,6392.1 -1173.7,6489.4 -1132.8,6429.5 -1225.1,6299.8 -1288.5,6395.1    -1179.2,6556.3 -1166.3,6535.8 -1263.6,6394.1 -1223.6,6336.7 -1157.8,6432 -1173.2,6449.5   "></polygon>	</g>	<g>		<polygon class="st3" points="-1060.5,6440 -1034,6441 -1082.9,6511.9 -1160.3,6513.4 -1081.4,6395.6 -952.2,6398.1 -1062,6560.3    -1177.2,6559.3 -1179.2,6556.3 -1166.3,6535.8 -1073.9,6535.8 -995.1,6418.1 -1072.5,6418.6 -1119.4,6490.9 -1091.9,6491.4   "></polygon>	</g>	<g>		<polygon class="st3" points="-1119.4,6411.6 -1210.7,6277.9 -1198.2,6258.4 -1106.4,6392.6   "></polygon>	</g>	<g>		<polygon class="st3" points="-1076.3,6576.6 -1089.8,6600.9 -1307.6,6600.9 -1320.3,6578.1   "></polygon>	</g></g></svg>