<svg xmlns="http://www.w3.org/2000/svg" width="43" height="43" viewBox="0 0 43 43" fill="none"><path d="M41.9142 15.0936C43.2529 19.3043 43.2036 23.8245 41.7737 28.006C40.3437 32.1875 37.6064 35.8157 33.9541 38.3704C30.3019 40.9251 25.9223 42.2751 21.4432 42.2269C16.964 42.1787 12.6154 40.7348 9.0207 38.1021C5.42598 35.4695 2.76976 31.7833 1.43284 27.572C0.0959174 23.3607 0.146932 18.8406 1.57859 14.6596C3.01025 10.4787 5.74903 6.85155 9.40229 4.29829C13.0556 1.74502 17.4357 0.396716 21.9148 0.446651C26.391 0.496554 30.7365 1.94036 34.3289 4.57132C37.9213 7.20229 40.5765 10.8855 41.9142 15.0936ZM21.8946 2.33545C17.8226 2.29555 13.8424 3.52627 10.5241 5.85127C7.20576 8.17627 4.71968 11.4762 3.42205 15.2784C2.12443 19.0805 2.08185 23.1896 3.3004 27.017C4.51896 30.8445 6.93611 34.1937 10.2055 36.585C13.475 38.9762 17.4289 40.2867 21.5008 40.3287C25.5727 40.3707 29.5536 39.1421 32.8732 36.8188C36.1927 34.4955 38.6805 31.1968 39.9802 27.3953C41.2798 23.5939 41.3246 19.4848 40.1081 15.6567C38.8898 11.8258 36.4712 8.47341 33.1992 6.08025C29.9272 3.68709 25.9697 2.37614 21.8946 2.33545Z" fill="black"></path><path fill-rule="evenodd" clip-rule="evenodd" d="M18.4007 14.6578C16.8722 14.5949 15.3683 15.0581 14.1402 15.9702C12.912 16.8823 12.0339 18.188 11.6523 19.6694C11.2707 21.1509 11.4088 22.7184 12.0435 24.1103C12.6782 25.5022 13.7712 26.6343 15.1399 27.3176C16.5086 28.0009 18.0702 28.1941 19.5642 27.8649C21.0581 27.5357 22.394 26.704 23.3487 25.5087C24.0717 24.6036 24.5431 23.5313 24.7253 22.3998H18.1488V20.1812H27.0222L27.0288 21.2839C27.0409 23.3214 26.3538 25.3014 25.0822 26.8934C23.8105 28.4853 22.0314 29.593 20.0416 30.0315C18.0518 30.4699 15.9719 30.2126 14.1489 29.3025C12.326 28.3924 10.8703 26.8846 10.025 25.0308C9.17959 23.1769 8.99567 21.0892 9.50389 19.1161C10.0121 17.143 11.1817 15.4039 12.8175 14.1891C14.4532 12.9743 16.4562 12.3573 18.4919 12.4411C20.5277 12.5249 22.4732 13.3045 24.0035 14.6496L22.5389 16.316C21.3898 15.306 19.9292 14.7207 18.4007 14.6578Z" fill="black"></path><path fill-rule="evenodd" clip-rule="evenodd" d="M29.2532 20.1807H35.9205V22.3992H29.2532V20.1807Z" fill="black"></path><path fill-rule="evenodd" clip-rule="evenodd" d="M33.696 17.957V24.6243H31.4775V17.957H33.696Z" fill="black"></path></svg>