<svg xmlns="http://www.w3.org/2000/svg" width="43" height="43" viewBox="0 0 43 43" fill="none"><path d="M41.9469 15.0931C43.2855 19.3038 43.2363 23.824 41.8063 28.0055C40.3763 32.187 37.639 35.8152 33.9868 38.3699C30.3346 40.9246 25.955 42.2746 21.4758 42.2264C16.9967 42.1782 12.6481 40.7343 9.05335 38.1016C5.45863 35.469 2.80242 31.7828 1.46549 27.5715C0.128571 23.3602 0.179586 18.8401 1.61125 14.6591C3.0429 10.4782 5.78169 6.85106 9.43495 4.2978C13.0882 1.74454 17.4684 0.396228 21.9475 0.446163C26.4237 0.496066 30.7691 1.93987 34.3615 4.57084C37.954 7.2018 40.6091 10.885 41.9469 15.0931ZM21.9272 2.33496C17.8553 2.29506 13.875 3.52578 10.5567 5.85078C7.23841 8.17579 4.75233 11.4757 3.45471 15.2779C2.15708 19.08 2.1145 23.1891 3.33306 27.0166C4.55161 30.844 6.96877 34.1932 10.2382 36.5845C13.5076 38.9757 17.4616 40.2863 21.5335 40.3282C25.6054 40.3702 29.5863 39.1416 32.9058 36.8183C36.2254 34.495 38.7132 31.1963 40.0128 27.3948C41.3125 23.5934 41.3572 19.4843 40.1407 15.6562C38.9225 11.8254 36.5039 8.47292 33.2319 6.07976C29.9598 3.6866 26.0024 2.37566 21.9272 2.33496Z" fill="white"></path><path fill-rule="evenodd" clip-rule="evenodd" d="M18.4333 14.6568C16.9048 14.5939 15.401 15.0571 14.1729 15.9692C12.9447 16.8813 12.0665 18.187 11.685 19.6685C11.3034 21.1499 11.4415 22.7174 12.0762 24.1093C12.7109 25.5012 13.8038 26.6333 15.1725 27.3166C16.5412 27.9999 18.1029 28.1931 19.5968 27.8639C21.0908 27.5347 22.4266 26.7031 23.3814 25.5078C24.1044 24.6026 24.5757 23.5303 24.758 22.3988H18.1814V20.1803H27.0549L27.0614 21.2829C27.0735 23.3204 26.3864 25.3004 25.1148 26.8924C23.8432 28.4844 22.064 29.592 20.0742 30.0305C18.0845 30.4689 16.0045 30.2116 14.1816 29.3015C12.3586 28.3915 10.903 26.8836 10.0576 25.0298C9.21225 23.1759 9.02832 21.0882 9.53654 19.1151C10.0448 17.142 11.2144 15.4029 12.8501 14.1881C14.4859 12.9733 16.4888 12.3563 18.5246 12.4402C20.5604 12.524 22.5058 13.3035 24.0362 14.6487L22.5715 16.315C21.4225 15.305 19.9618 14.7198 18.4333 14.6568Z" fill="white"></path><path fill-rule="evenodd" clip-rule="evenodd" d="M29.2859 20.1799H35.9531V22.3985H29.2859V20.1799Z" fill="white"></path><path fill-rule="evenodd" clip-rule="evenodd" d="M33.7287 17.9561V24.6233H31.5101V17.9561H33.7287Z" fill="white"></path></svg>