<svg xmlns="http://www.w3.org/2000/svg" width="43" height="43" viewBox="0 0 43 43" fill="none"><path d="M21.2739 0.44751C17.0813 0.44751 12.9828 1.67218 9.49669 3.96667C6.01062 6.26115 3.29355 9.52239 1.68909 13.338C0.0846255 17.1536 -0.335177 21.3521 0.482772 25.4027C1.30072 29.4533 3.31968 33.174 6.28434 36.0944C9.24901 39.0147 13.0262 41.0035 17.1383 41.8092C21.2504 42.6149 25.5127 42.2014 29.3862 40.6209C33.2598 39.0404 36.5705 36.364 38.8998 32.9301C41.2292 29.4961 42.4724 25.4589 42.4724 21.329C42.4724 15.7909 40.239 10.4796 36.2635 6.56355C32.288 2.64752 26.8961 0.44751 21.2739 0.44751ZM21.2739 40.6107C17.0517 40.6084 12.9434 39.2607 9.56289 36.7688C6.18234 34.2769 3.71089 30.7746 2.5177 26.785C1.32451 22.7954 1.47361 18.5327 2.94273 14.6334C4.41185 10.7342 7.12214 7.40773 10.6688 5.15096C14.2154 2.89418 18.4081 1.82817 22.6205 2.11217C26.8329 2.39617 30.839 4.01493 34.0404 6.72666C37.2419 9.43839 39.4668 13.0976 40.3829 17.1576C41.299 21.2177 40.8571 25.4607 39.1232 29.2529C37.5778 32.642 35.0708 35.5186 31.9039 37.5364C28.7371 39.5541 25.0455 40.627 21.2739 40.6256V40.6107Z" fill="white"></path><path d="M27.7899 10.0407H14.7572C13.4725 10.0234 12.2335 10.5092 11.3123 11.3914C10.3911 12.2736 9.86323 13.4799 9.84457 14.7453V27.9569C9.85184 28.5824 9.98419 29.2003 10.2341 29.7753C10.4839 30.3503 10.8464 30.8712 11.3008 31.3081C11.7551 31.745 12.2925 32.0895 12.8821 32.3217C13.4717 32.5539 14.102 32.6694 14.7369 32.6615H27.7545C28.389 32.6687 29.0188 32.5528 29.6078 32.3202C30.1968 32.0877 30.7336 31.7432 31.1874 31.3063C31.6412 30.8695 32.0033 30.3488 32.2528 29.7741C32.5024 29.1994 32.6345 28.5819 32.6418 27.9569V14.7453C32.6284 13.4887 32.1106 12.2884 31.2014 11.4068C30.2922 10.5252 29.0657 10.0341 27.7899 10.0407ZM30.7142 27.9569C30.7142 28.6958 30.4162 29.4044 29.8859 29.9268C29.3555 30.4493 28.6361 30.7428 27.8861 30.7428H14.7572C14.0078 30.7683 13.2788 30.4997 12.7305 29.996C12.1821 29.4923 11.8593 28.7947 11.8329 28.0566V14.7453C11.8315 14.3795 11.9036 14.0171 12.045 13.6788C12.1863 13.3405 12.3941 13.0331 12.6565 12.7742C12.9188 12.5153 13.2305 12.3101 13.5737 12.1702C13.9168 12.0304 14.2846 11.9588 14.656 11.9594H27.7748C28.5241 11.9339 29.2531 12.2025 29.8014 12.7062C30.3498 13.2099 30.6727 13.9075 30.699 14.6456V14.7453L30.7142 27.9569Z" fill="white"></path><path d="M21.2747 15.4685C20.095 15.4685 18.9417 15.8131 17.9608 16.4587C16.9798 17.1044 16.2153 18.022 15.7638 19.0957C15.3124 20.1693 15.1942 21.3507 15.4244 22.4905C15.6546 23.6303 16.2227 24.6772 17.0569 25.499C17.8911 26.3207 18.9539 26.8803 20.111 27.107C21.2681 27.3337 22.4674 27.2174 23.5574 26.7727C24.6473 26.3279 25.5789 25.5748 26.2344 24.6086C26.8898 23.6423 27.2396 22.5063 27.2396 21.3442C27.2396 19.7859 26.6112 18.2914 25.4925 17.1895C24.3739 16.0876 22.8567 15.4685 21.2747 15.4685ZM21.2747 25.2165C20.4862 25.2165 19.7154 24.9862 19.0598 24.5547C18.4042 24.1232 17.8932 23.5098 17.5914 22.7922C17.2897 22.0746 17.2107 21.285 17.3646 20.5233C17.5184 19.7615 17.8981 19.0617 18.4557 18.5125C19.0132 17.9633 19.7236 17.5893 20.4969 17.4377C21.2703 17.2862 22.0719 17.364 22.8004 17.6612C23.5288 17.9585 24.1515 18.4618 24.5896 19.1076C25.0276 19.7534 25.2614 20.5127 25.2614 21.2894V21.3442C25.2561 22.3841 24.8344 23.38 24.0879 24.1153C23.3414 24.8507 22.3304 25.2661 21.2747 25.2713V25.2165Z" fill="white"></path><path d="M27.6741 16.5551C28.4481 16.5551 29.0755 15.9371 29.0755 15.1747C29.0755 14.4122 28.4481 13.7942 27.6741 13.7942C26.9001 13.7942 26.2727 14.4122 26.2727 15.1747C26.2727 15.9371 26.9001 16.5551 27.6741 16.5551Z" fill="white"></path></svg>