<svg xmlns="http://www.w3.org/2000/svg" width="44" height="41" viewBox="0 0 44 41" fill="none"><path d="M42.5405 14.3353C43.933 18.3772 43.9262 22.7289 42.5211 26.7669C41.1159 30.8049 38.3845 34.3222 34.7182 36.8147C31.0518 39.3073 26.6386 40.6473 22.1108 40.6428C17.5829 40.6383 13.1727 39.2896 9.51198 36.7897C5.85125 34.2899 3.1278 30.7672 1.73177 26.7264C0.335737 22.6856 0.338755 18.3339 1.74039 14.2948C3.14203 10.2557 5.87038 6.73641 9.53458 4.24104C13.1988 1.74567 17.6108 0.402284 22.1387 0.403321C26.6719 0.406573 31.0877 1.75638 34.7528 4.2592C38.4179 6.76203 41.1441 10.2893 42.5405 14.3353ZM22.1387 2.22409C18.2768 2.22884 14.5031 3.30784 11.2949 5.32462C8.08663 7.3414 5.58793 10.2054 4.11472 13.5544C2.64152 16.9034 2.25998 20.5871 3.01836 24.1395C3.77675 27.692 5.64101 30.9537 8.37536 33.5122C11.1097 36.0707 14.5914 37.811 18.3801 38.5132C22.1687 39.2153 26.0943 38.8477 29.6603 37.4569C33.2263 36.066 36.2726 33.7144 38.4139 30.6994C40.5553 27.6843 41.6955 24.1413 41.6904 20.5183C41.6823 15.6604 39.6181 11.0043 35.9518 7.57379C32.2854 4.14324 27.3169 2.21899 22.1387 2.22409Z" fill="white"></path><path d="M10.5852 9.56787L19.611 21.4489L10.5042 31.1121H12.5279L20.4761 22.64L26.8964 31.1121H33.8529L24.3212 18.5584L32.7702 9.58781H30.7465L23.4257 17.3772L17.5114 9.58781L10.5852 9.56787ZM13.5904 11.063H16.7879L30.8932 29.637H27.6957L13.5904 11.063Z" fill="white"></path></svg>