<svg xmlns="http://www.w3.org/2000/svg" width="43" height="43" viewBox="0 0 43 43" fill="none"><path d="M41.741 14.9003C43.1167 19.0932 43.11 23.6074 41.7218 27.7963C40.3335 31.9853 37.635 35.6339 34.0128 38.2196C30.3905 40.8053 26.0305 42.1954 21.5571 42.1907C17.0837 42.186 12.7266 40.7869 9.10996 38.1936C5.49329 35.6004 2.80261 31.9461 1.42338 27.7543C0.0441539 23.5625 0.0471432 19.0483 1.43191 14.8583C2.81668 10.6683 5.51218 7.01747 9.13228 4.42886C12.7524 1.84026 17.1113 0.446679 21.5847 0.447755C26.0634 0.451128 30.426 1.85136 34.047 4.4477C37.6679 7.04404 40.3613 10.7031 41.741 14.9003ZM21.5847 2.33655C17.5105 2.34195 13.5426 3.61746 10.2495 5.98036C6.95636 8.34325 4.50698 11.6723 3.25228 15.4904C1.99757 19.3086 2.00194 23.42 3.26475 27.2356C4.52755 31.0512 6.98399 34.3752 10.2821 36.7313C13.5803 39.0874 17.5509 40.3547 21.625 40.3517C25.6992 40.3487 29.6679 39.0756 32.9624 36.7146C36.257 34.3536 38.7084 31.0261 39.9654 27.2086C41.2224 23.3912 41.2206 19.2798 39.9601 15.4635C38.6997 11.6426 36.2422 8.31369 32.9405 5.95509C29.6389 3.59648 25.6632 2.32962 21.5847 2.33655Z" fill="white"></path><path fill-rule="evenodd" clip-rule="evenodd" d="M25.0513 14.143H27.4089V10.5897C27.0447 10.5897 26.6602 10.505 26.2655 10.4801H24.1457C23.0751 10.4736 22.0288 10.7939 21.1506 11.3971C20.6658 11.7452 20.257 12.1858 19.9485 12.6926C19.64 13.1994 19.438 13.7622 19.3545 14.3474C19.2748 14.8171 19.2274 15.2917 19.2129 15.7677V18.5536H15.7776V22.5106H19.1825V32.433H23.4222V22.4657H26.8322L27.242 18.5536H23.2856V15.7677C23.3969 14.5168 24.1052 14.168 25.0513 14.143Z" fill="white"></path></svg>