<svg xmlns="http://www.w3.org/2000/svg" width="33" height="26" viewBox="0 0 33 26" fill="none"><path fill-rule="evenodd" clip-rule="evenodd" d="M30.3325 4.35716C30.7561 4.92202 30.6416 5.72335 30.0768 6.14699L20.1688 13.578C18.0095 15.1974 15.0408 15.1974 12.8816 13.578L2.97356 6.14708C2.4087 5.72344 2.29422 4.9221 2.71786 4.35725C3.1415 3.79239 3.94283 3.67791 4.50769 4.10155L14.4157 11.5325C14.4157 11.5325 14.4157 11.5325 14.4157 11.5325C15.6658 12.47 17.3845 12.47 18.6346 11.5325C18.6346 11.5325 18.6346 11.5325 18.6346 11.5325L28.5426 4.10147C29.1075 3.67783 29.9088 3.7923 30.3325 4.35716Z" fill="#38BCD6"></path><path fill-rule="evenodd" clip-rule="evenodd" d="M5.33882 3.20657C4.27971 3.20657 3.42114 4.06514 3.42114 5.12425V21.1049C3.42114 22.164 4.27971 23.0226 5.33882 23.0226H27.7118C28.7709 23.0226 29.6294 22.164 29.6294 21.1049V5.12425C29.6294 4.06514 28.7709 3.20657 27.7118 3.20657H5.33882ZM0.864227 5.12425C0.864227 2.653 2.86757 0.649658 5.33882 0.649658H27.7118C30.183 0.649658 32.1863 2.653 32.1863 5.12425V21.1049C32.1863 23.5762 30.183 25.5795 27.7118 25.5795H5.33882C2.86757 25.5795 0.864227 23.5762 0.864227 21.1049V5.12425Z" fill="#38BCD6"></path></svg>