<svg xmlns="http://www.w3.org/2000/svg" width="43" height="43" viewBox="0 0 43 43" fill="none"><path d="M21.2413 0.448242C17.0486 0.448242 12.9501 1.67291 9.46403 3.9674C5.97796 6.26188 3.2609 9.52312 1.65644 13.3387C0.0519717 17.1543 -0.367831 21.3529 0.450118 25.4035C1.26807 29.4541 3.28703 33.1748 6.25169 36.0951C9.21635 39.0154 12.9936 41.0042 17.1057 41.8099C21.2178 42.6156 25.4801 42.2021 29.3536 40.6216C33.2271 39.0412 36.5379 36.3647 38.8672 32.9308C41.1965 29.4969 42.4398 25.4596 42.4398 21.3297C42.4398 15.7916 40.2064 10.4803 36.2309 6.56428C32.2554 2.64825 26.8635 0.448242 21.2413 0.448242ZM21.2413 40.6114C17.019 40.6091 12.9108 39.2614 9.53024 36.7695C6.14969 34.2776 3.67824 30.7754 2.48505 26.7858C1.29186 22.7962 1.44096 18.5334 2.91008 14.6341C4.37919 10.7349 7.08949 7.40847 10.6361 5.15169C14.1828 2.89491 18.3754 1.82891 22.5878 2.11291C26.8003 2.3969 30.8064 4.01567 34.0078 6.72739C37.2092 9.43912 39.4341 13.0983 40.3502 17.1583C41.2663 21.2184 40.8244 25.4614 39.0905 29.2537C37.5452 32.6427 35.0381 35.5193 31.8713 37.5371C28.7044 39.5549 25.0129 40.6277 21.2413 40.6263V40.6114Z" fill="black"></path><path d="M27.7573 10.0415H14.7245C13.4399 10.0242 12.2008 10.51 11.2797 11.3921C10.3585 12.2743 9.83058 13.4806 9.81192 14.746V27.9576C9.81918 28.5831 9.95153 29.201 10.2014 29.776C10.4513 30.351 10.8137 30.8719 11.2681 31.3088C11.7225 31.7458 12.2598 32.0902 12.8494 32.3224C13.439 32.5546 14.0693 32.6701 14.7043 32.6622H27.7219C28.3564 32.6694 28.9861 32.5535 29.5751 32.321C30.1641 32.0885 30.7009 31.7439 31.1547 31.3071C31.6086 30.8702 31.9706 30.3496 32.2201 29.7749C32.4697 29.2002 32.6019 28.5827 32.6091 27.9576V14.746C32.5958 13.4894 32.0779 12.2891 31.1687 11.4075C30.2596 10.526 29.033 10.0348 27.7573 10.0415ZM30.6816 27.9576C30.6816 28.6965 30.3836 29.4051 29.8532 29.9275C29.3228 30.45 28.6035 30.7435 27.8534 30.7435H14.7245C13.9752 30.7691 13.2462 30.5005 12.6978 29.9967C12.1495 29.493 11.8266 28.7954 11.8002 28.0573V14.746C11.7989 14.3802 11.871 14.0178 12.0123 13.6795C12.1536 13.3413 12.3615 13.0338 12.6238 12.775C12.8862 12.5161 13.1979 12.3108 13.541 12.171C13.8842 12.0311 14.252 11.9595 14.6233 11.9602H27.7421C28.4914 11.9346 29.2204 12.2032 29.7688 12.7069C30.3171 13.2106 30.64 13.9082 30.6664 14.6463V14.746L30.6816 27.9576Z" fill="black"></path><path d="M21.2421 15.4697C20.0623 15.4697 18.909 15.8143 17.9281 16.46C16.9472 17.1056 16.1827 18.0233 15.7312 19.0969C15.2797 20.1705 15.1616 21.352 15.3917 22.4917C15.6219 23.6315 16.19 24.6785 17.0242 25.5002C17.8584 26.3219 18.9213 26.8815 20.0784 27.1082C21.2354 27.335 22.4348 27.2186 23.5247 26.7739C24.6147 26.3292 25.5463 25.5761 26.2017 24.6098C26.8571 23.6436 27.207 22.5075 27.207 21.3454C27.207 19.7871 26.5785 18.2926 25.4599 17.1907C24.3412 16.0888 22.824 15.4697 21.2421 15.4697ZM21.2421 25.2177C20.4535 25.2177 19.6828 24.9874 19.0271 24.5559C18.3715 24.1244 17.8605 23.511 17.5588 22.7935C17.257 22.0759 17.1781 21.2863 17.3319 20.5245C17.4858 19.7627 17.8655 19.063 18.423 18.5137C18.9806 17.9645 19.6909 17.5905 20.4643 17.439C21.2376 17.2874 22.0392 17.3652 22.7677 17.6624C23.4962 17.9597 24.1188 18.463 24.5569 19.1088C24.995 19.7546 25.2288 20.5139 25.2288 21.2906V21.3454C25.2235 22.3854 24.8017 23.3812 24.0552 24.1165C23.3087 24.8519 22.2978 25.2673 21.2421 25.2725V25.2177Z" fill="black"></path><path d="M27.6414 16.5559C28.4154 16.5559 29.0429 15.9378 29.0429 15.1754C29.0429 14.413 28.4154 13.7949 27.6414 13.7949C26.8675 13.7949 26.24 14.413 26.24 15.1754C26.24 15.9378 26.8675 16.5559 27.6414 16.5559Z" fill="black"></path></svg>