<svg xmlns="http://www.w3.org/2000/svg" width="42" height="93"><path d="M0 0 C0.99 0 1.98 0 3 0 C1.58080168 4.46033758 -0.86616643 7.32849178 -4.0625 10.625 C-7.71762369 14.49572987 -11.2250808 18.40860503 -14.5625 22.5625 C-18.4512774 27.39379975 -22.56018157 31.97528308 -26.7578125 36.5390625 C-29.26581051 39.29174324 -31.65523691 42.10812552 -34 45 C-32.55283653 49.69678203 -29.78937174 52.67767177 -26.4375 56.125 C-21.77550782 61.03835016 -17.40391578 66.08366838 -13.16015625 71.3671875 C-10.92833202 74.0873494 -8.61224097 76.70508411 -6.25 79.3125 C-5.51523437 80.12460938 -4.78046875 80.93671875 -4.0234375 81.7734375 C-2.78380152 83.1375157 -1.53998369 84.49782587 -0.2890625 85.8515625 C1.125 87.4375 1.125 87.4375 3 90 C2.505 91.485 2.505 91.485 2 93 C-2.70872461 89.16601187 -6.81385306 85.17002279 -10.6875 80.5 C-11.73028715 79.26286774 -12.77326133 78.02589311 -13.81640625 76.7890625 C-14.34250488 76.16161133 -14.86860352 75.53416016 -15.41064453 74.88769531 C-17.46120914 72.45221674 -19.53754101 70.03956473 -21.61547852 67.62744141 C-27.48516378 60.81317635 -33.26486982 53.92783424 -39 47 C-37.73063053 44.26637247 -36.37591334 42.07719578 -34.3828125 39.8203125 C-33.86452881 39.22855225 -33.34624512 38.63679199 -32.81225586 38.02709961 C-31.97706421 37.0855603 -31.97706421 37.0855603 -31.125 36.125 C-29.94103136 34.77506829 -28.75744601 33.42480033 -27.57421875 32.07421875 C-26.67582275 31.05207275 -26.67582275 31.05207275 -25.75927734 30.00927734 C-23.12886359 27.00507179 -20.5325091 23.97227531 -17.9375 20.9375 C-17.45369873 20.37482422 -16.96989746 19.81214844 -16.47143555 19.23242188 C-13.8497626 16.18054576 -11.25499522 13.10935974 -8.6875 10.01171875 C-8.14359619 9.36146729 -7.59969238 8.71121582 -7.03930664 8.04125977 C-5.99222375 6.78862242 -4.9520194 5.53019451 -3.91967773 4.26538086 C-2.67784146 2.78672038 -1.34524641 1.38524592 0 0 Z " fill="#FFFFFF" transform="translate(39,0)"></path></svg>