<svg xmlns="http://www.w3.org/2000/svg" width="51" height="50" viewBox="0 0 51 50" fill="none"><path d="M20.149 14.3577C20.1487 14.9677 19.9061 15.5526 19.4746 15.9837C19.043 16.4148 18.4579 16.6568 17.8479 16.6565C17.2379 16.6562 16.6531 16.4136 16.222 15.9821C15.7908 15.5505 15.5488 14.9654 15.5491 14.3554C15.5494 13.7454 15.792 13.1606 16.2236 12.7295C16.6551 12.2984 17.2402 12.0563 17.8502 12.0566C18.4602 12.0569 19.0451 12.2996 19.4762 12.7311C19.9073 13.1626 20.1493 13.7477 20.149 14.3577ZM20.218 18.3596H15.6181V32.7572H20.218V18.3596ZM27.4858 18.3596H22.9089V32.7572H27.4398V25.2019C27.4398 20.993 32.9251 20.602 32.9251 25.2019V32.7572H37.4675V23.638C37.4675 16.5427 29.3487 16.8072 27.4398 20.2916L27.4858 18.3596Z" fill="#2EC1D9"></path><path d="M49.0367 17.2349C50.6483 22.1467 50.6405 27.4348 49.0142 32.3418C47.388 37.2489 44.2268 41.523 39.9836 44.552C35.7404 47.581 30.6328 49.2094 25.3926 49.2039C20.1523 49.1985 15.0482 47.5594 10.8115 44.5216C6.57483 41.4838 3.42287 37.203 1.80719 32.2926C0.191515 27.3822 0.195017 22.0941 1.81719 17.1857C3.43936 12.2774 6.59696 8.00069 10.8377 4.96831C15.0784 1.93592 20.1846 0.303429 25.4249 0.304688C30.6714 0.30864 35.7819 1.94893 40.0237 4.99037C44.2654 8.03182 47.4206 12.3182 49.0367 17.2349ZM25.4249 2.51729C20.6523 2.52361 16.0041 4.0178 12.1464 6.78578C8.28873 9.55377 5.41944 13.4535 3.94963 17.9263C2.47982 22.399 2.48494 27.2153 3.96424 31.685C5.44353 36.1547 8.32109 40.0485 12.1847 42.8085C16.0482 45.5686 20.6995 47.0532 25.4722 47.0497C30.2448 47.0462 34.8938 45.5547 38.7532 42.789C42.6126 40.0233 45.4842 36.1253 46.9568 31.6534C48.4293 27.1815 48.4271 22.3652 46.9505 17.8946C45.4741 13.4188 42.5952 9.51914 38.7275 6.75618C34.8599 3.99323 30.2026 2.50917 25.4249 2.51729Z" fill="#2EC1D9"></path></svg>