<svg xmlns="http://www.w3.org/2000/svg" width="51" height="50" viewBox="0 0 51 50" fill="none"><path d="M20.149 14.5784C20.1487 15.1884 19.9061 15.7733 19.4746 16.2044C19.043 16.6355 18.4579 16.8775 17.8479 16.8772C17.2379 16.8769 16.6531 16.6343 16.222 16.2028C15.7908 15.7712 15.5488 15.1861 15.5491 14.5761C15.5494 13.9661 15.792 13.3813 16.2236 12.9502C16.6551 12.5191 17.2402 12.277 17.8502 12.2773C18.4602 12.2776 19.0451 12.5203 19.4762 12.9518C19.9073 13.3833 20.1493 13.9684 20.149 14.5784ZM20.218 18.5803H15.6181V32.9779H20.218V18.5803ZM27.4858 18.5803H22.9089V32.9779H27.4398V25.4226C27.4398 21.2137 32.9251 20.8228 32.9251 25.4226V32.9779H37.4675V23.8587C37.4675 16.7634 29.3487 17.0279 27.4398 20.5123L27.4858 18.5803Z" fill="black"></path><path d="M49.0367 17.4556C50.6483 22.3674 50.6405 27.6555 49.0142 32.5625C47.388 37.4696 44.2268 41.7437 39.9836 44.7727C35.7404 47.8017 30.6328 49.4301 25.3926 49.4246C20.1523 49.4192 15.0482 47.7801 10.8115 44.7423C6.57483 41.7045 3.42287 37.4238 1.80719 32.5133C0.191515 27.6029 0.195017 22.3148 1.81719 17.4064C3.43936 12.4981 6.59696 8.2214 10.8377 5.18901C15.0784 2.15663 20.1846 0.524132 25.4249 0.525391C30.6714 0.529343 35.7819 2.16963 40.0237 5.21108C44.2654 8.25252 47.4206 12.5389 49.0367 17.4556ZM25.4249 2.738C20.6523 2.74432 16.0041 4.23851 12.1464 7.00649C8.28873 9.77447 5.41944 13.6742 3.94963 18.147C2.47982 22.6197 2.48494 27.436 3.96424 31.9057C5.44353 36.3754 8.32109 40.2692 12.1847 43.0293C16.0482 45.7893 20.6995 47.2739 25.4722 47.2704C30.2448 47.2669 34.8938 45.7754 38.7532 43.0097C42.6126 40.244 45.4842 36.346 46.9568 31.8741C48.4293 27.4022 48.4271 22.5859 46.9505 18.1153C45.4741 13.6395 42.5952 9.73984 38.7275 6.97689C34.8599 4.21393 30.2026 2.72987 25.4249 2.738Z" fill="black"></path></svg>