<svg xmlns="http://www.w3.org/2000/svg" width="30" height="31" viewBox="0 0 30 31" fill="none"><path fill-rule="evenodd" clip-rule="evenodd" d="M22.3177 29.8991C19.4469 29.1799 13.5699 27.1521 8.24192 21.8242C2.91399 16.4963 0.886267 10.6192 0.166996 7.74844C-0.24635 6.09865 0.497989 4.50664 1.7601 3.60513L5.06882 1.24175C7.00478 -0.141068 9.69795 0.328171 11.0522 2.28426L13.1352 5.29312C14.0194 6.57034 13.7144 8.32087 12.4503 9.22378L10.7894 10.4102C11.0408 11.3717 11.8226 13.3464 14.2712 15.795C16.7198 18.2436 18.6945 19.0253 19.656 19.2767L20.8423 17.6157C21.7453 16.3518 23.4958 16.0466 24.773 16.9309L27.7819 19.0139C29.738 20.3683 30.2072 23.0613 28.8243 24.9973L26.461 28.3061C25.5595 29.5682 23.9675 30.3125 22.3177 29.8991ZM10.2517 19.8145C15.0969 24.6596 20.4437 26.4995 23.0084 27.1422C23.3833 27.236 23.8365 27.0903 24.1481 26.654L26.5116 23.3452C26.9725 22.7 26.8162 21.8023 26.164 21.3508L23.1552 19.2678L21.882 21.0503C21.3618 21.7787 20.3995 22.35 19.2791 22.1083C17.8807 21.8066 15.2957 20.8389 12.2615 17.8047C9.22724 14.7705 8.25959 12.1855 7.95786 10.7871C7.71612 9.66667 8.28747 8.70445 9.01591 8.18413L10.7983 6.91095L8.71528 3.90209C8.26388 3.25005 7.36616 3.09364 6.72084 3.55458L3.41212 5.91796C2.97578 6.22962 2.8301 6.68282 2.92402 7.05768C3.56663 9.62245 5.40655 14.9693 10.2517 19.8145Z" fill="black"></path></svg>