<svg xmlns="http://www.w3.org/2000/svg" width="42" height="93"><path d="M0 0 C0.99 0 1.98 0 3 0 C4.91015625 2.01953125 4.91015625 2.01953125 7.0625 4.8125 C10.25290502 8.85092192 13.50207015 12.71830673 17 16.5 C21.08366612 20.93657553 24.90853394 25.52203504 28.6875 30.21875 C31.98514193 34.18483286 35.49557877 37.93357746 39.03125 41.6875 C41 44 41 44 42 47 C41.38253906 47.66644531 40.76507813 48.33289062 40.12890625 49.01953125 C35.78301396 53.74907917 31.5346075 58.49824151 27.5 63.5 C23.67204837 68.24450343 19.62807239 72.73477331 15.49609375 77.21484375 C12.14718384 80.95157734 9.02130909 84.8496326 5.91015625 88.78515625 C4 91 4 91 1 93 C1 88.2179198 1.85602943 87.48400695 4.875 83.9375 C5.69742187 82.96683594 6.51984375 81.99617188 7.3671875 80.99609375 C10.70135557 77.20186985 14.10325984 73.47447615 17.5234375 69.7578125 C20.7530249 66.16145808 23.78106311 62.42051897 26.81640625 58.66015625 C30.09340113 54.6679675 33.53235604 50.82669157 37 47 C34.00024723 42.04388673 30.32942293 37.96822634 26.421875 33.703125 C24.04637015 31.05175507 21.79573627 28.33424714 19.5625 25.5625 C15.62451571 20.69346864 11.4706322 16.06625883 7.2421875 11.44921875 C0 3.53832753 0 3.53832753 0 0 Z " fill="#FFFFFF" transform="translate(0,0)"></path></svg>