<svg xmlns="http://www.w3.org/2000/svg" width="44" height="41" viewBox="0 0 44 41" fill="none"><path d="M42.5079 14.3363C43.9004 18.3782 43.8936 22.7299 42.4884 26.7679C41.0833 30.8059 38.3519 34.3231 34.6855 36.8157C31.0192 39.3083 26.606 40.6483 22.0781 40.6438C17.5502 40.6393 13.1401 39.2905 9.47932 36.7907C5.81859 34.2908 3.09515 30.7682 1.69911 26.7274C0.303084 22.6866 0.306101 18.3349 1.70774 14.2958C3.10938 10.2567 5.83772 6.73739 9.50192 4.24202C13.1661 1.74665 17.5782 0.403261 22.106 0.404297C26.6393 0.40755 31.055 1.75735 34.7201 4.26018C38.3852 6.763 41.1114 10.2903 42.5079 14.3363ZM22.106 2.22507C18.2441 2.22982 14.4705 3.30881 11.2622 5.32559C8.05398 7.34237 5.55527 10.2064 4.08207 13.5554C2.60886 16.9044 2.22732 20.5881 2.98571 24.1405C3.7441 27.693 5.60835 30.9547 8.34271 33.5132C11.0771 36.0716 14.5587 37.812 18.3474 38.5142C22.1361 39.2163 26.0616 38.8487 29.6276 37.4579C33.1936 36.067 36.2399 33.7154 38.3813 30.7003C40.5226 27.6853 41.6628 24.1422 41.6578 20.5193C41.6496 15.6614 39.5855 11.0053 35.9191 7.57476C32.2527 4.14421 27.2843 2.21996 22.106 2.22507Z" fill="black"></path><path d="M10.5525 9.56836L19.5783 21.4494L10.4716 31.1126H12.4953L20.4434 22.6404L26.8637 31.1126H33.8202L24.2885 18.5588L32.7376 9.5883H30.7138L23.393 17.3777L17.4787 9.5883L10.5525 9.56836ZM13.5577 11.0635H16.7552L30.8606 29.6375H27.6631L13.5577 11.0635Z" fill="black"></path></svg>