<svg xmlns="http://www.w3.org/2000/svg" width="41" height="41" viewBox="0 0 41 41" fill="none"><path d="M40.2568 20.8362C40.2568 31.8819 31.3025 40.8362 20.2568 40.8362C9.21114 40.8362 0.256836 31.8819 0.256836 20.8362C0.256836 9.79049 9.21114 0.836182 20.2568 0.836182C31.3025 0.836182 40.2568 9.79049 40.2568 20.8362Z" fill="white"></path><path d="M20.2568 0.836182C9.21219 0.836182 0.256836 9.79154 0.256836 20.8362C0.256836 31.8808 9.21219 40.8362 20.2568 40.8362C31.3015 40.8362 40.2568 31.8808 40.2568 20.8362C40.2568 9.79154 31.3015 0.836182 20.2568 0.836182ZM21.8863 25.7826C19.9265 28.5415 15.989 29.3451 12.9176 28.1621C9.83719 26.988 7.64969 23.7335 7.91309 20.4165C7.98005 16.3585 11.7167 12.8005 15.7747 12.9389C17.7211 12.8496 19.5515 13.6933 21.0425 14.8853C20.4042 15.6085 19.7479 16.3049 19.0426 16.9523C17.2524 15.7156 14.7033 15.363 12.9131 16.7915C10.3506 18.5639 10.2345 22.7469 12.6988 24.6531C15.0961 26.8273 19.6274 25.7469 20.2926 22.4165C18.7926 22.3942 17.2836 22.4165 15.7836 22.3674C15.7792 21.4701 15.7747 20.5773 15.7792 19.6799C18.2881 19.671 20.8015 19.6665 23.3149 19.6889C23.4622 21.8005 23.1809 24.0415 21.8863 25.7826ZM32.7122 21.9299C31.9622 21.9389 31.2122 21.9433 30.4622 21.9478C30.4533 22.6978 30.4488 23.4478 30.4488 24.1978H28.2033C28.1943 23.4478 28.1943 22.7023 28.1899 21.9523C27.4399 21.9433 26.6899 21.9389 25.9399 21.9299V19.6933C26.6899 19.6844 27.4399 19.6799 28.1899 19.6799C28.1943 18.9299 28.2033 18.1799 28.2077 17.4299H30.4488L30.4622 19.6799C31.2122 19.6889 31.9622 19.6889 32.7122 19.6933V21.9299Z" fill="#F24822"></path></svg>