<svg xmlns="http://www.w3.org/2000/svg" width="15" height="15"><path d="M0 0 C1.67542976 0.28604898 3.34385343 0.61781233 5 1 C5.66 3.31 6.32 5.62 7 8 C7.99 7.67 8.98 7.34 10 7 C10.99 7.66 11.98 8.32 13 9 C12.67 10.65 12.34 12.3 12 14 C10.375 14.75 10.375 14.75 8 15 C3.27086016 12.53690633 0.46309367 9.72913984 -2 5 C-1.81353683 2.70028762 -1.62542316 1.62542316 0 0 Z M1 2 C0.67 2.66 0.34 3.32 0 4 C0.66 4.66 1.32 5.32 2 6 C2.33 4.68 2.66 3.36 3 2 C2.34 2 1.68 2 1 2 Z M9 10 C8.34 10.66 7.68 11.32 7 12 C7.99 12.33 8.98 12.66 10 13 C10.33 12.01 10.66 11.02 11 10 C10.34 10 9.68 10 9 10 Z " fill="#FFFFFF" transform="translate(2,0)"></path></svg>