<svg xmlns="http://www.w3.org/2000/svg" width="30" height="31" viewBox="0 0 30 31" fill="none"><path fill-rule="evenodd" clip-rule="evenodd" d="M22.3177 29.8994C19.4469 29.1802 13.5699 27.1524 8.24192 21.8244C2.91399 16.4965 0.886267 10.6195 0.166996 7.74869C-0.24635 6.0989 0.497989 4.50689 1.7601 3.60537L5.06882 1.242C7.00478 -0.140824 9.69795 0.328415 11.0522 2.2845L13.1352 5.29336C14.0194 6.57058 13.7144 8.32112 12.4503 9.22402L10.7894 10.4104C11.0408 11.372 11.8226 13.3466 14.2712 15.7952C16.7198 18.2438 18.6945 19.0256 19.656 19.2769L20.8423 17.6159C21.7453 16.352 23.4958 16.0469 24.773 16.9311L27.7819 19.0142C29.738 20.3685 30.2072 23.0615 28.8243 24.9975L26.461 28.3063C25.5595 29.5684 23.9675 30.3128 22.3177 29.8994ZM10.2517 19.8147C15.0969 24.6599 20.4437 26.4998 23.0084 27.1424C23.3833 27.2362 23.8365 27.0905 24.1481 26.6543L26.5116 23.3455C26.9725 22.7003 26.8162 21.8026 26.164 21.3511L23.1552 19.268L21.882 21.0505C21.3618 21.779 20.3995 22.3503 19.2791 22.1085C17.8807 21.8068 15.2957 20.8392 12.2615 17.805C9.22724 14.7707 8.25959 12.1857 7.95786 10.7873C7.71612 9.66691 8.28747 8.70469 9.01591 8.18438L10.7983 6.91119L8.71528 3.90233C8.26388 3.25029 7.36616 3.09388 6.72084 3.55482L3.41212 5.9182C2.97578 6.22987 2.8301 6.68306 2.92402 7.05793C3.56663 9.62269 5.40655 14.9695 10.2517 19.8147Z" fill="#2EC0D8"></path></svg>