<svg xmlns="http://www.w3.org/2000/svg" width="16" height="13" viewBox="0 0 16 13" fill="none"><path fill-rule="evenodd" clip-rule="evenodd" d="M14.7511 1.9471C14.958 2.22302 14.9021 2.61446 14.6262 2.8214L9.78633 6.45131C8.7316 7.24234 7.28142 7.24234 6.22669 6.45132L1.3868 2.82144C1.11088 2.6145 1.05496 2.22307 1.2619 1.94714C1.46884 1.67122 1.86027 1.6153 2.1362 1.82224L6.97607 5.45211C6.97607 5.4521 6.97607 5.45211 6.97607 5.45211C7.58672 5.91007 8.42628 5.91008 9.03693 5.45211C9.03693 5.45211 9.03693 5.45211 9.03693 5.45211L13.8768 1.8222C14.1527 1.61526 14.5442 1.67118 14.7511 1.9471Z" fill="white"></path><path fill-rule="evenodd" clip-rule="evenodd" d="M2.5422 1.38523C2.02484 1.38523 1.60545 1.80463 1.60545 2.32198V10.1282C1.60545 10.6456 2.02484 11.065 2.5422 11.065H13.471C13.9883 11.065 14.4077 10.6456 14.4077 10.1282V2.32198C14.4077 1.80463 13.9883 1.38523 13.471 1.38523H2.5422ZM0.356445 2.32198C0.356445 1.11482 1.33504 0.13623 2.5422 0.13623H13.471C14.6781 0.13623 15.6567 1.11482 15.6567 2.32198V10.1282C15.6567 11.3354 14.6781 12.314 13.471 12.314H2.5422C1.33504 12.314 0.356445 11.3354 0.356445 10.1282V2.32198Z" fill="white"></path></svg>