<svg xmlns="http://www.w3.org/2000/svg" width="15" height="15" viewBox="0 0 15 15" fill="none"><path fill-rule="evenodd" clip-rule="evenodd" d="M11.3428 14.4472C9.94043 14.0959 7.06961 13.1054 4.46699 10.5028C1.8644 7.90019 0.873897 5.02936 0.522546 3.62703C0.320634 2.82114 0.68423 2.04348 1.30075 1.6031L2.91699 0.448638C3.86267 -0.226843 5.17823 0.00237124 5.83974 0.957882L6.85726 2.42765C7.28918 3.05155 7.14021 3.90665 6.52273 4.34771L5.71139 4.92724C5.83418 5.39694 6.2161 6.36152 7.41219 7.55761C8.60828 8.75369 9.57286 9.13557 10.0425 9.25837L10.6221 8.447C11.0631 7.82959 11.9182 7.68055 12.5421 8.11247L14.0119 9.13001C14.9674 9.79158 15.1966 11.1071 14.5211 12.0528L13.3667 13.669C12.9263 14.2856 12.1486 14.6492 11.3428 14.4472ZM5.44872 9.52105C7.81552 11.8878 10.4273 12.7866 11.6801 13.1005C11.8633 13.1463 12.0846 13.0752 12.2369 12.862L13.3914 11.2458C13.6165 10.9306 13.5402 10.4921 13.2216 10.2715L11.7518 9.254L11.1299 10.1247C10.8758 10.4806 10.4057 10.7596 9.85845 10.6415C9.17536 10.4942 7.91263 10.0215 6.43047 8.53933C4.9483 7.05716 4.47562 5.79443 4.32823 5.11135C4.21015 4.56405 4.48924 4.09402 4.84507 3.83986L5.71576 3.21793L4.69822 1.74816C4.47772 1.42965 4.0392 1.35325 3.72398 1.57841L2.10773 2.73288C1.89458 2.88512 1.82342 3.1065 1.8693 3.28961C2.1832 4.54245 3.08197 7.15428 5.44872 9.52105Z" fill="white"></path></svg>